<svg width="14" height="16" viewBox="0 0 14 16" fill="none" xmlns="http://www.w3.org/2000/svg">
<g clip-path="url(#clip0_10_103)">
<path d="M13.1977 8.42439C13.1987 8.42055 13.1997 8.41671 13.2006 8.41287C13.208 8.38216 13.2147 8.35112 13.2205 8.32009C13.2205 8.31881 13.2211 8.31753 13.2211 8.31625C13.2332 8.25035 13.2412 8.1838 13.2454 8.11693C13.2457 8.11182 13.246 8.1067 13.2464 8.10158C13.248 8.07246 13.2489 8.04303 13.2489 8.01392C13.2489 8.01136 13.2489 8.0088 13.2489 8.00624V8.0056C13.2489 7.76597 13.199 7.52506 13.097 7.29855C13.0845 7.27136 13.0714 7.24417 13.0576 7.21729C13.0518 7.20609 13.0458 7.19458 13.0397 7.18338C13.0349 7.17442 13.0298 7.16514 13.0247 7.15619C13.0128 7.13539 13.0007 7.11491 12.9882 7.09476C12.9856 7.0906 12.9827 7.08644 12.9802 7.08196C12.9498 7.03365 12.9168 6.98694 12.8813 6.94215C12.7508 6.77547 12.5892 6.6315 12.4014 6.52049L2.82754 0.377837H2.82402C2.80034 0.359281 2.77507 0.340405 2.75139 0.323449L2.745 0.32025C2.67973 0.2729 2.61063 0.230669 2.53896 0.193557C2.53448 0.191318 2.53032 0.188758 2.52584 0.186519C2.52424 0.185879 2.52264 0.184919 2.52105 0.184279C2.49737 0.172442 2.47338 0.160925 2.44938 0.150047C2.31053 0.0879806 2.16432 0.0444702 2.0146 0.0211154C1.99572 0.018236 1.97685 0.0159965 1.95765 0.013757C1.94741 0.0124773 1.93717 0.0108776 1.92662 0.00959789C1.86487 0.0031993 1.80248 0 1.7401 0C1.2842 0 0.846214 0.178521 0.520206 0.496851C0.195157 0.813901 0.00831817 1.24645 0 1.70043V1.88822C0 1.88822 0 14.1163 0 14.1214V14.2698C0 14.4407 0.0259143 14.6102 0.0755034 14.7724C0.0764632 14.7759 0.0777429 14.7798 0.0790226 14.7833C0.0831817 14.7967 0.0873408 14.8102 0.0918198 14.8233C0.0969387 14.8383 0.102377 14.8534 0.107816 14.8684C0.108456 14.87 0.109096 14.8719 0.109736 14.8735C0.246986 15.2408 0.507728 15.5569 0.857091 15.7607C1.03753 15.8663 1.23205 15.936 1.43168 15.9718C1.43328 15.9718 1.43488 15.9725 1.43616 15.9728C1.51327 15.9866 1.59101 15.9949 1.66907 15.9981C1.67451 15.9981 1.67995 15.9987 1.68539 15.9987C1.70842 15.9994 1.73114 15.9997 1.75417 15.9994C1.76281 15.9994 1.77113 15.9994 1.77977 15.999C1.85303 15.9974 1.9263 15.9914 1.99892 15.9805C2.00596 15.9795 2.01268 15.9786 2.01972 15.9773C2.04339 15.9734 2.06707 15.969 2.09042 15.9642C2.09586 15.9632 2.1013 15.9619 2.10674 15.9606C2.27118 15.9255 2.4321 15.8672 2.58343 15.784L2.59431 15.7776L2.59911 15.7741L2.60551 15.7697L2.77251 15.6593C3.25208 15.3509 5.12207 14.1524 12.3912 9.49487L12.5156 9.41713C12.8404 9.18902 13.0621 8.86909 13.1712 8.51717C13.1712 8.51653 13.1715 8.51589 13.1718 8.51525C13.1811 8.48485 13.1897 8.45446 13.1974 8.42375L13.1977 8.42439ZM7.25216 6.53936C7.25216 6.53936 7.2512 6.53872 7.25088 6.53872L7.24992 6.53808C7.24992 6.53808 7.25152 6.53904 7.25216 6.53936Z" fill="#10CFC9"/>
</g>
<defs>
<clipPath id="clip0_10_103">
<rect width="13.2496" height="16" fill="white"/>
</clipPath>
</defs>
</svg>
