<svg width="283" height="26" viewBox="0 0 283 26" fill="none" xmlns="http://www.w3.org/2000/svg">
<g clip-path="url(#clip0_28_2)">
<path d="M40.394 2.72083L37.0502 10.9193H34.679L31.3512 2.72083H33.7224L35.9172 8.29803L38.1832 2.72083H40.394V2.72083Z" fill="#410099"/>
<path d="M46.4218 8.4748C47.2021 7.51838 47.2021 6.1213 46.4218 5.16489C46.2323 4.96247 46.0038 4.80315 45.7509 4.69709C44.9651 4.38523 44.0755 4.56683 43.4642 5.16489C42.6826 6.12082 42.6826 7.51887 43.4642 8.4748C44.0755 9.07285 44.9651 9.25494 45.7509 8.94259C46.0038 8.83654 46.2323 8.67722 46.4218 8.4748ZM49.3016 2.71696V10.9232H47.0641V9.97745C46.4838 10.6898 45.6444 11.0452 44.5452 11.0448C43.825 11.0554 43.1142 10.8772 42.4799 10.5261C41.8695 10.1862 41.367 9.67285 41.0311 9.04671C40.3278 7.65107 40.3264 5.98958 41.0283 4.59298C41.3642 3.96683 41.8667 3.45352 42.4766 3.11357C43.1123 2.76248 43.8241 2.58379 44.5452 2.59444C45.5759 2.59444 46.3815 2.92471 46.9623 3.58572V2.71599H49.3016V2.71696Z" fill="#410099"/>
<path d="M63.4245 3.499C64.0166 4.10384 64.3126 5.01086 64.3126 6.22054V10.9154H61.9837V6.58906C61.9837 5.9387 61.8518 5.45347 61.5882 5.13289C61.3038 4.80311 60.8891 4.62587 60.4622 4.65299C59.9733 4.62829 59.499 4.82636 59.164 5.19439C58.8454 5.55565 58.6864 6.09124 58.6864 6.80213V10.9183H56.3598V6.58954C56.3598 5.29899 55.8526 4.65348 54.8378 4.65299C54.3536 4.63023 53.8844 4.82829 53.5546 5.19439C53.2365 5.55565 53.0775 6.09124 53.077 6.80213V10.9183H50.7494V2.71693H52.9733V3.66268C53.275 3.3145 53.6503 3.04283 54.0702 2.86898C54.523 2.68254 55.0071 2.58957 55.4946 2.59538C56.0262 2.58714 56.5521 2.70433 57.0325 2.93823C57.4825 3.16051 57.8648 3.50723 58.136 3.93919C58.4677 3.51014 58.8951 3.17019 59.3817 2.9484C59.901 2.71111 60.4636 2.5915 61.0313 2.59828C62.0362 2.59634 62.8343 2.89707 63.4264 3.49997" fill="#410099"/>
<path d="M71.6589 8.47483C72.4114 7.50825 72.4114 6.13151 71.6589 5.16493C70.8585 4.34072 69.5626 4.34072 68.7617 5.16493C67.9979 6.12763 67.9979 7.51261 68.7617 8.47483C69.1385 8.885 69.6668 9.11018 70.2143 9.09323C70.7595 9.11115 71.2859 8.88597 71.6584 8.47483M67.974 10.5039C67.3312 10.162 66.7936 9.64141 66.422 9.00122C65.6779 7.6482 65.6779 5.99107 66.422 4.63805C66.794 3.99786 67.3317 3.47777 67.974 3.1354C69.3815 2.41385 71.0353 2.41385 72.4428 3.1354C73.08 3.48067 73.612 4.00028 73.9808 4.63805C74.7249 5.99107 74.7249 7.6482 73.9808 9.00122C73.6115 9.63947 73.0781 10.1596 72.44 10.5039C71.033 11.2254 69.3801 11.2254 67.9735 10.5039" fill="#410099"/>
<path d="M76.9065 10.7921C76.3735 10.6666 75.8631 10.4531 75.3962 10.1596L76.1666 8.45163C76.5668 8.70538 77.0008 8.89812 77.455 9.02354C77.9363 9.16737 78.4346 9.24098 78.9356 9.2434C79.9134 9.2434 80.4018 8.994 80.4018 8.49473C80.3957 8.25212 80.231 8.04486 80.0016 7.99207C79.6019 7.86132 79.1899 7.77416 78.7724 7.73251C78.2272 7.65454 77.6881 7.53735 77.1584 7.38191C76.7376 7.25213 76.3571 7.01 76.055 6.68022C75.7233 6.28409 75.5558 5.76884 75.5886 5.24633C75.5811 4.74899 75.734 4.26328 76.0235 3.86619C76.3534 3.43472 76.7953 3.10978 77.2978 2.92818C77.9312 2.69089 78.6016 2.57758 79.2753 2.59307C79.8407 2.59307 80.4041 2.65748 80.9559 2.78339C81.441 2.88266 81.9083 3.0599 82.3404 3.30881L81.57 5.00178C80.8696 4.595 80.0785 4.38435 79.2749 4.39113C78.893 4.3674 78.5115 4.441 78.1639 4.60517C77.9485 4.6996 77.8045 4.91316 77.7937 5.15432C77.7918 5.40613 77.957 5.62647 78.1934 5.68797C78.6086 5.8255 79.0351 5.92332 79.4677 5.98095C80.0072 6.06714 80.5416 6.18676 81.0671 6.3393C81.4809 6.46617 81.8543 6.70588 82.1476 7.03276C82.4718 7.42065 82.6364 7.92428 82.6064 8.43565C82.612 8.92669 82.4553 9.40562 82.1621 9.79255C81.8229 10.2201 81.3734 10.5402 80.8658 10.7155C80.2165 10.9485 79.5315 11.0594 78.8442 11.0434C78.1906 11.0434 77.5394 10.9586 76.9065 10.7906" fill="#410099"/>
<path d="M36.7922 21.9818C37.1956 21.7498 37.5264 21.4036 37.746 20.9837C37.9806 20.5309 38.0993 20.0239 38.0904 19.5106C38.0997 18.9997 37.981 18.4946 37.746 18.0447C37.5241 17.6278 37.1938 17.2825 36.7922 17.0486C35.9477 16.5711 34.9253 16.5711 34.0808 17.0486C33.682 17.2844 33.3541 17.6297 33.1336 18.0467C32.8985 18.4965 32.7798 19.0016 32.7888 19.5125C32.7798 20.0258 32.8985 20.5329 33.1336 20.9856C33.3513 21.404 33.6797 21.7503 34.0808 21.9837C34.9277 22.451 35.9448 22.451 36.7922 21.9837V21.9822V21.9818ZM37.3176 16.299C37.852 16.5997 38.2926 17.0506 38.5881 17.5992C39.2023 18.8011 39.2023 20.2384 38.5881 21.4404C38.2935 21.9876 37.8553 22.4384 37.3242 22.7401C36.7664 23.0534 36.1396 23.2123 35.5048 23.2011C34.9633 23.2094 34.428 23.0844 33.9429 22.8365C33.477 22.5919 33.0829 22.2244 32.8005 21.7706V25.8021H31.8396V15.8932H32.7592V17.3242C33.0369 16.8573 33.4315 16.4772 33.9016 16.223C34.3971 15.961 34.9474 15.8283 35.5038 15.8375C36.1363 15.8288 36.7607 15.9876 37.3167 16.2985" fill="#410099"/>
<path d="M44.7821 21.943C45.1767 21.7101 45.4994 21.3668 45.712 20.9522C46.1652 20.0326 46.1652 18.9445 45.712 18.0249C45.499 17.6108 45.1762 17.268 44.7821 17.036C43.9535 16.5721 42.9537 16.5721 42.1257 17.036C41.7306 17.269 41.4078 17.6128 41.1948 18.0273C40.7426 18.9474 40.7426 20.035 41.1948 20.9551C41.4088 21.3687 41.7316 21.7115 42.1257 21.944C42.9547 22.4089 43.9554 22.4089 44.7844 21.944H44.7821V21.943V21.943ZM46.982 15.8932V23.0849H46.0784V21.6626C45.8091 22.1309 45.4206 22.514 44.9552 22.7701C44.4687 23.0307 43.9273 23.1619 43.3797 23.1527C42.7572 23.1609 42.1435 23.0006 41.5997 22.6878C41.0719 22.3847 40.6375 21.9343 40.3456 21.3885C39.7432 20.1978 39.7432 18.7784 40.3456 17.5876C40.6351 17.0433 41.0686 16.5949 41.595 16.2946C42.1402 15.9862 42.7534 15.8283 43.3751 15.8365C43.9076 15.8288 44.4344 15.9532 44.9106 16.1992C45.3718 16.4423 45.7612 16.8084 46.0395 17.2593V15.8922H46.982V15.8932V15.8932Z" fill="#410099"/>
<path d="M50.345 16.2114C50.8517 15.9465 51.4152 15.8182 51.9829 15.8385V16.7911L51.7549 16.7775C51.1041 16.7407 50.4698 16.9973 50.0166 17.4806C49.5976 17.9494 49.3879 18.607 49.3879 19.454V23.1537H48.4388V15.8942H49.348V17.316C49.5549 16.8458 49.9049 16.4584 50.3446 16.2124" fill="#410099"/>
<path d="M54.3353 22.6873C53.7976 22.3846 53.3529 21.9323 53.0517 21.3817C52.4309 20.2031 52.4309 18.7803 53.0517 17.6016C53.3543 17.0544 53.799 16.6045 54.3353 16.3033C54.9063 15.9871 55.5462 15.8268 56.1937 15.8379C56.7529 15.8283 57.307 15.9527 57.8118 16.2007C58.2787 16.4341 58.6699 16.8021 58.9378 17.2602L58.2317 17.7527C58.014 17.4094 57.7105 17.1329 57.353 16.9527C56.9917 16.7735 56.5953 16.682 56.1941 16.6854C55.7179 16.6781 55.2483 16.7982 54.8303 17.0345C54.4291 17.2636 54.1012 17.6079 53.8854 18.0253C53.4326 18.9469 53.4326 20.036 53.8854 20.958C54.1026 21.3725 54.4305 21.7144 54.8303 21.9425C55.2488 22.1783 55.7193 22.2984 56.196 22.2907C56.5962 22.2946 56.9922 22.2059 57.3549 22.0306C57.7128 21.8549 58.0173 21.5808 58.2336 21.2379L58.9397 21.7294C58.6704 22.189 58.2768 22.5575 57.8071 22.7895C57.3042 23.0364 56.7525 23.1609 56.1955 23.1522C55.5472 23.1638 54.9063 23.0035 54.3348 22.6868" fill="#410099"/>
<path d="M61.8232 17.0201C61.4385 17.2496 61.1237 17.5857 60.9144 17.9905C60.6902 18.4307 60.5771 18.9222 60.5865 19.4196C60.5846 19.5198 60.5888 19.6205 60.6001 19.7203L65.5597 18.7363C65.4654 18.159 65.1768 17.6346 64.7443 17.2554C64.2986 16.8617 63.7266 16.653 63.1402 16.6699C62.6785 16.6632 62.2239 16.7847 61.8232 17.021M64.5918 22.0501C64.9554 21.8956 65.2782 21.6549 65.5343 21.3469L66.0687 21.976C65.7553 22.3609 65.3561 22.6622 64.9057 22.8539C63.7806 23.3077 62.5213 23.2457 61.4432 22.6835C60.8966 22.3837 60.4425 21.9314 60.1328 21.3784C59.8161 20.8041 59.6547 20.1527 59.6646 19.4922C59.6543 18.8341 59.8086 18.1842 60.1126 17.606C60.3988 17.0617 60.8276 16.6109 61.3494 16.3043C61.895 15.9891 62.512 15.8283 63.1369 15.8385C63.728 15.8302 64.3112 15.9818 64.8287 16.2772C65.3279 16.5649 65.7431 16.9847 66.0317 17.4937C66.3357 18.0336 66.4994 18.6457 66.506 19.2704L60.7305 20.42C60.8924 20.9789 61.2349 21.4631 61.7017 21.7919C62.1976 22.1333 62.7836 22.3077 63.3795 22.2907C63.7942 22.2946 64.2057 22.2132 64.5899 22.0505" fill="#410099"/>
<path d="M68.5975 22.6089C68.2386 22.1929 68.0552 21.6466 68.0875 21.0902V12.9373H69.0278V21.0084C69.0034 21.3605 69.1075 21.7091 69.3191 21.9861C69.549 22.2244 69.8685 22.3469 70.1936 22.3217C70.4123 22.328 70.6295 22.2859 70.8308 22.1982L70.8965 23.0035C70.6234 23.1033 70.3353 23.1541 70.0459 23.1537C69.5096 23.1905 68.9837 22.9929 68.5957 22.6094" fill="#410099"/>
<path d="M75.8832 21.943C76.2783 21.7101 76.6006 21.3668 76.8141 20.9522C77.2673 20.0326 77.2673 18.9445 76.8141 18.0249C76.6006 17.6108 76.2778 17.268 75.8832 17.036C75.0538 16.5711 74.0526 16.5711 73.2231 17.036C72.828 17.269 72.5052 17.6128 72.2918 18.0273C71.8395 18.9474 71.8395 20.035 72.2918 20.9551C72.5057 21.3697 72.8285 21.713 73.2231 21.9459C74.0526 22.4108 75.0538 22.4108 75.8832 21.9459V21.9435V21.943ZM78.0841 15.8927V23.0844H77.1796V21.6622C76.9103 22.1304 76.5218 22.5135 76.0559 22.7696C75.5694 23.0302 75.0275 23.1614 74.4795 23.1522C73.8569 23.1604 73.2432 23.0002 72.6995 22.6873C72.1731 22.3837 71.74 21.9333 71.4491 21.3881C70.8463 20.1973 70.8463 18.7779 71.4491 17.5871C71.7391 17.0428 72.1726 16.5944 72.6995 16.2941C73.2446 15.9857 73.8578 15.8278 74.4795 15.836C75.0125 15.8283 75.5393 15.9527 76.016 16.1987C76.4749 16.4428 76.8629 16.8084 77.1397 17.2588V15.8917H78.0841V15.8927V15.8927Z" fill="#410099"/>
<path d="M81.579 16.2114C82.0857 15.9465 82.6491 15.8182 83.2168 15.8385V16.7911L82.9888 16.7775C82.3381 16.7407 81.7042 16.9973 81.2505 17.4806C80.8311 17.9494 80.6214 18.607 80.6219 19.454V23.1537H79.6727V15.8942H80.582V17.316C80.7889 16.8458 81.1389 16.4584 81.5785 16.2124" fill="#410099"/>
<path d="M7.45414 3.05453V21.5687L7.3026 21.6704C5.19932 23.0888 4.34121 23.6646 3.99309 23.9019L3.75287 24.0665L3.74349 24.0733L3.73645 24.0786L3.72003 24.0883C2.94403 24.5367 1.9949 24.5227 1.23156 24.0515C0.854823 23.8186 0.543764 23.4883 0.328416 23.0936C0.112129 22.697 -0.000940173 22.2491 -1.83644e-06 21.7939V2.77027C0.010789 2.08552 0.279622 1.43226 0.749729 0.94897C1.21655 0.468586 1.84852 0.198854 2.5077 0.197885C2.85911 0.196916 3.20676 0.273914 3.52673 0.424518C3.67828 0.494251 3.82184 0.580934 3.95555 0.682144L3.96494 0.686986C3.99872 0.712652 4.03531 0.741223 4.06909 0.76931H4.07332L7.45461 3.05356V3.05453H7.45414Z" fill="#10CFC9"/>
<path d="M26.8603 12.3155C26.8603 13.1659 26.4587 13.9629 25.7836 14.4506L25.6011 14.5683C14.9411 21.6181 12.1988 23.4321 11.496 23.8985L11.2511 24.0655L11.2417 24.0723L11.2347 24.0777L11.2187 24.0873C9.99797 24.7818 8.46379 24.3401 7.76708 23.0946C7.54704 22.6999 7.43115 22.252 7.43068 21.7968V21.5721C8.491 20.8733 9.84408 19.975 11.5809 18.8278C13.3178 17.6806 15.4328 16.2816 18.0123 14.5736L18.1925 14.455C19.3363 13.6269 19.6131 11.9983 18.8104 10.8177C18.6039 10.5141 18.3374 10.2593 18.0287 10.0705L7.43021 3.0555V2.77124C7.44241 2.08408 7.71641 1.42936 8.19308 0.949461C8.67116 0.467624 9.31345 0.197408 9.98202 0.197408C10.3395 0.195955 10.6928 0.273436 11.0193 0.424041C11.1732 0.493774 11.3196 0.580456 11.4557 0.682151L11.4651 0.686993C11.4998 0.712659 11.5368 0.74123 11.5716 0.769317H11.5767L25.6175 10.0661C26.387 10.5368 26.8594 11.391 26.8599 12.314" fill="#10CFC9"/>
<path d="M19.3067 12.3455C19.3067 13.1969 18.9047 13.9949 18.2286 14.4835L18.0465 14.6017C15.4642 16.3121 13.3441 17.7116 11.6086 18.8617C9.8727 20.0118 8.51869 20.9092 7.45367 21.6089V3.06812L18.0634 10.0947C18.8338 10.5659 19.3063 11.4216 19.3063 12.3455" fill="#410099"/>
</g>
<g clip-path="url(#clip1_28_2)">
<path d="M131.37 5.27455C134.851 5.16301 139.126 9.11143 143.832 9.80296C144.158 9.84757 145.732 9.51296 145.732 9.51296L146.711 9.29732C141.62 9.4386 136.484 3.88405 131.029 3.80969L131.37 5.27455V5.27455Z" fill="#00AAB5"/>
<path d="M143.609 6.56102C139.015 6.85102 134.406 2.64978 129.804 3.49746C127.963 3.83208 130.799 4.2113 130.799 4.2113C133.626 5.05155 136.788 6.33794 139.505 6.9105C139.831 6.97742 140.188 6.9923 140.499 7.04435C140.826 7.07409 142.399 7.02947 142.399 7.02947L143.609 6.56102V6.56102Z" fill="#00AAB5"/>
<path d="M148.701 4.38971C146.162 5.26714 144.477 7.92916 139.542 6.91789C144.077 6.77661 146.771 4.03279 149.725 3.2446C150.734 2.98434 150.14 3.89151 148.701 4.38971V4.38971Z" fill="#C5D335"/>
<path d="M154.304 4.35999C153.325 3.92128 154.43 4.67973 153.681 4.18896C149.443 4.82101 148.649 9.6989 143.609 9.76582C148.901 11.1191 151.944 3.65359 156.457 4.81357C156.086 5.12588 154.341 4.82844 154.304 4.35999V4.35999Z" fill="#C5D335"/>
<path d="M137.842 10.6506C143.023 10.7101 146.259 2.61996 151.306 3.1256C155.239 3.5197 155.945 5.3266 159.47 2.89509C159.5 2.87278 159.596 2.82073 159.626 2.9397C159.641 3.0215 159.641 3.10329 159.596 3.17021C156.227 6.60556 153.681 4.24097 151.113 4.25584C147.676 4.27071 146.793 8.07041 141.672 11.067C141.538 11.1117 141.375 11.2009 141.152 11.2827C140.841 11.3942 140.492 11.4835 140.492 11.4835L137.842 10.6506V10.6506Z" fill="#00AAB5"/>
<path d="M123.436 9.71376C127.919 3.57922 130.843 5.03664 133.003 6.9402C136.202 9.75838 137.523 12.993 141.679 11.0671C139.356 12.0114 137.976 9.5353 134.042 5.59432C132.031 3.58665 128.513 0.761045 123.221 9.46838C123.102 9.65428 123.332 9.86991 123.436 9.71376V9.71376Z" fill="#C5D335"/>
<path d="M111.531 17.1569C111.375 16.8075 110.893 16.7405 110.076 16.7405H109.149C107.872 16.7405 107.709 17.1569 107.709 18.0864V20.3469C107.709 21.3879 107.805 21.8564 109.163 21.8564C109.675 21.8564 111.546 21.6333 112.526 21.5069L112.592 22.6297C111.598 22.8528 109.49 23.1279 108.748 23.1279C106.877 23.1279 106.217 22.2653 106.217 20.4213V18.1459C106.217 16.3539 106.892 15.4839 108.733 15.4839H110.507C111.754 15.4839 112.459 15.8854 112.793 16.7034L111.531 17.1569V17.1569Z" fill="#A7A9AC"/>
<path d="M119.087 19.5811L116.704 19.9157C115.613 20.0793 115.331 20.2206 115.264 20.8973C115.331 21.5516 115.598 21.8565 116.704 21.8565H117.135C118.478 21.8565 119.087 21.1501 119.087 20.1239V19.5811V19.5811ZM119.562 22.9942L119.242 22.3547C118.73 22.8678 117.751 23.128 117.224 23.128H116.281C113.913 23.128 113.787 21.3285 113.787 20.9493C113.787 20.5701 113.884 18.8822 116.281 18.6591L119.087 18.3988V17.8188C119.087 17.2909 118.99 16.7481 117.617 16.7481C117.12 16.7481 115.235 16.9712 114.27 17.0976L114.203 15.9748C115.183 15.7666 117.29 15.4766 118.048 15.4766C119.903 15.4766 120.564 16.3614 120.564 18.2055V22.9942H119.562V22.9942Z" fill="#A7A9AC"/>
<path d="M125.677 23.1205C123.807 23.1205 123.161 22.258 123.161 20.4139V16.7257H121.454V15.5732H123.161V13.1788H124.631V15.5657H126.568V16.7183H124.631V20.3395C124.631 21.3805 124.727 21.849 126.086 21.849C126.434 21.849 126.724 21.7375 127.206 21.6408V22.8305C126.65 22.9941 126.19 23.1205 125.677 23.1205Z" fill="#A7A9AC"/>
<path d="M132.216 16.7405H131.288C129.93 16.7405 129.849 17.2239 129.849 18.2649V18.9564L132.216 18.6962C133.322 18.5846 133.656 18.3913 133.656 17.7221C133.656 17.0528 133.322 16.7405 132.216 16.7405V16.7405ZM132.647 19.9677C130.836 20.0792 129.841 20.1313 129.841 20.1313V20.3543C129.841 21.3954 129.938 21.8638 131.296 21.8638C131.808 21.8638 133.678 21.6407 134.658 21.5143L134.725 22.6371C133.73 22.8602 131.622 23.1353 130.88 23.1353C129.01 23.1353 128.349 22.2728 128.349 20.4287V18.2128C128.349 16.3687 129.002 15.4839 130.865 15.4839H132.639C134.131 15.4839 135.133 16.2498 135.133 17.7295C135.148 19.0977 134.139 19.871 132.647 19.9677V19.9677Z" fill="#A7A9AC"/>
<path d="M142.073 23.009V18.2501C142.073 17.2091 141.976 16.7407 140.596 16.7407C140.136 16.7407 139.156 16.934 138.228 17.0604V23.009H136.736V15.5881H137.902L138.221 15.9599C139.178 15.7517 140.314 15.4766 141.019 15.4766C142.874 15.4766 143.535 16.3614 143.535 18.1832V23.009H142.073Z" fill="#A7A9AC"/>
<path d="M150.556 18.265C150.556 17.224 150.46 16.7407 149.087 16.7407H148.159C146.801 16.7407 146.704 17.224 146.704 18.265V20.347C146.704 21.388 146.801 21.8565 148.159 21.8565H149.087C150.467 21.8565 150.556 21.3955 150.556 20.347V18.265ZM149.517 23.128H147.743C145.888 23.128 145.227 22.2655 145.227 20.4214V18.2055C145.227 16.3614 145.888 15.4766 147.743 15.4766H149.517C151.373 15.4766 152.033 16.3614 152.033 18.2055V20.4214C152.033 22.258 151.373 23.128 149.517 23.128V23.128Z" fill="#A7A9AC"/>
</g>
<g clip-path="url(#clip2_28_2)">
<path d="M282.175 4.47473H182.635V21.5253H282.175V4.47473Z" fill="#FCFC30"/>
<path fill-rule="evenodd" clip-rule="evenodd" d="M204.47 12.2717V10.1064H205.236C205.931 10.1064 206.421 10.5631 206.421 11.1855C206.421 12.0064 205.794 12.2646 205.344 12.2646H204.627L204.469 12.2708L204.47 12.2717ZM204.896 13.5663H205.168C206.204 13.5663 206.531 14.024 206.531 14.7754C206.531 15.9596 205.55 15.9721 205.114 15.9721H204.471V13.5797L204.897 13.5663H204.896ZM216.97 17.2729V12.6484L218.9 17.2729H220.98V10.3414H219.482V14.8235L217.605 10.3414H215.474V17.2738H216.97V17.2729ZM224.326 17.4768C225.858 17.4768 226.752 16.8696 226.752 14.9785H225.01C224.989 15.5367 224.98 16.4182 224.326 16.4182C223.585 16.4182 223.478 15.9712 223.478 13.8236C223.478 11.6761 223.648 11.2282 224.293 11.2282C224.757 11.2282 224.966 11.5799 224.966 12.5201H226.698C226.763 11.0021 225.919 10.1696 224.251 10.1696C221.764 10.1696 221.692 11.7491 221.692 13.8228C221.692 15.8964 221.628 17.4759 224.326 17.4759V17.4768ZM210.486 17.2729L210.922 15.737H212.791L213.216 17.2729H215.065L212.982 10.3405H210.867L208.743 17.2729H210.485H210.486ZM212.515 14.6704H211.175L211.813 11.8337L212.514 14.6704H212.515ZM229.968 16.4182C229.178 16.4182 229.075 15.6347 229.075 13.8236C229.075 12.0126 229.178 11.2282 229.968 11.2282C230.757 11.2282 230.86 12.0117 230.86 13.8236C230.86 15.6355 230.757 16.4182 229.968 16.4182ZM229.968 17.4768C232.665 17.4768 232.665 15.6747 232.665 13.8236C232.665 11.9726 232.665 10.1705 229.968 10.1705C227.27 10.1705 227.269 11.953 227.269 13.8236C227.269 15.6943 227.269 17.4768 229.968 17.4768ZM272.946 17.2729V10.3414H271.182V17.2738H272.946V17.2729ZM277.803 17.2729V16.2241H275.744V10.3414H273.98V17.2738H277.803V17.2729ZM251.143 17.2747C251.974 17.2747 254.038 17.1803 254.038 15.0337C254.038 13.8726 253.675 13.0633 252.286 12.887C253.35 12.676 253.882 11.9717 253.882 10.9985C253.882 9.19195 252.649 8.80464 251.157 8.80464H247.678V17.2747H251.143V17.2747ZM249.815 12.2833V10.1179H250.847C251.412 10.1179 251.813 10.5756 251.813 11.1971C251.813 12.0189 251.303 12.2762 250.936 12.2762H250.351L249.815 12.2833ZM250.352 13.5788H250.792C251.635 13.5788 251.901 14.0364 251.901 14.787C251.901 15.9721 251.102 15.9837 250.747 15.9837H249.815V13.5921L250.352 13.5788ZM236.34 11.3983H237.056C238.02 11.3983 238.02 12.5255 238.02 13.8067C238.02 15.5501 237.854 16.2143 237.01 16.2143H236.34V11.3983ZM234.583 17.272H237.218C239.981 17.272 239.799 14.8253 239.799 13.756C239.799 11.5897 239.403 10.3174 237.283 10.3174H234.584V17.272H234.583ZM243.154 16.4226C242.363 16.4226 242.262 15.6427 242.262 13.8379C242.262 12.0331 242.363 11.254 243.154 11.254C243.945 11.254 244.047 12.034 244.047 13.8379C244.047 15.6418 243.945 16.4226 243.154 16.4226ZM243.154 17.4759C245.854 17.4759 245.854 15.681 245.854 13.8379C245.854 11.9948 245.854 10.2016 243.154 10.2016C240.453 10.2016 240.454 11.9752 240.454 13.8379C240.454 15.7005 240.454 17.4759 243.154 17.4759ZM263.291 14.6731H261.952L262.59 11.8372L263.291 14.6731H263.291ZM268.192 17.272C269.353 17.272 270.528 17.1171 270.528 15.3212C270.528 13.2485 267.524 13.455 267.524 12.14C267.524 11.66 267.817 11.4001 268.31 11.4001H269.918V10.3334H267.66C265.803 10.3334 265.343 11.1712 265.343 12.2566C265.343 14.3205 268.673 14.2733 268.673 15.4334C268.673 15.9044 268.42 16.2205 267.905 16.2205H265.524L263.759 10.3387H261.644L259.691 16.6479L258.465 13.9358C259.363 13.7684 259.722 13.1986 259.725 12.1533C259.728 10.9727 259.023 10.3387 257.929 10.3387H254.623V17.2711H256.431V11.4063H257.03C257.541 11.4063 257.983 11.7785 257.983 12.4596C257.983 13.0383 257.694 13.512 257.229 13.4817L256.726 13.4889L258.371 17.2729H261.262L261.699 15.7362H263.567L263.993 17.2729H268.193L268.192 17.272ZM205.803 17.272C206.634 17.272 208.698 17.1786 208.698 15.0319C208.698 13.8708 208.334 13.0606 206.945 12.8852C208.009 12.6742 208.542 11.9708 208.542 10.9967C208.542 9.18928 207.309 8.80286 205.815 8.80286H202.337V17.272H205.802H205.803Z" fill="#465EFF"/>
<path fill-rule="evenodd" clip-rule="evenodd" d="M187.006 17.5854L188.336 16.6995L189.665 17.5854L187.006 19.3581V17.5854V17.5854ZM199.771 8.3683L198.441 9.25511L197.112 8.3683L199.772 6.59558V8.3683H199.771ZM199.771 15.1039L197.111 13.3312L193.92 15.4583L195.249 16.3442L193.521 17.4964L189.799 15.0149L195.915 10.9379L194.585 10.052L187.006 15.1039L193.388 19.3581L199.77 15.1039H199.771ZM187.006 10.8498L189.665 12.6225L192.856 10.4954L191.527 9.60948L193.255 8.45734L196.978 10.9388L190.862 15.0158L192.191 15.9026L199.77 10.8507L193.389 6.59647L187.006 10.8498Z" fill="#465EFF"/>
</g>
<defs>
<clipPath id="clip0_28_2">
<rect width="83.2168" height="25.6052" fill="white" transform="translate(0 0.197388)"/>
</clipPath>
<clipPath id="clip1_28_2">
<rect width="53.4179" height="20.2708" fill="white" transform="translate(106.217 2.86462)"/>
</clipPath>
<clipPath id="clip2_28_2">
<rect width="99.5405" height="17.0506" fill="white" transform="translate(182.635 4.47473)"/>
</clipPath>
</defs>
</svg>
