<svg width="396" height="26" viewBox="0 0 396 26" fill="none" xmlns="http://www.w3.org/2000/svg">
<g clip-path="url(#clip0_28_2)">
<path d="M40.394 2.72083L37.0502 10.9193H34.679L31.3512 2.72083H33.7224L35.9172 8.29803L38.1832 2.72083H40.394V2.72083Z" fill="#410099"/>
<path d="M46.4218 8.4748C47.2021 7.51838 47.2021 6.1213 46.4218 5.16489C46.2323 4.96247 46.0038 4.80315 45.7509 4.69709C44.9651 4.38523 44.0755 4.56683 43.4642 5.16489C42.6826 6.12082 42.6826 7.51887 43.4642 8.4748C44.0755 9.07285 44.9651 9.25494 45.7509 8.94259C46.0038 8.83654 46.2323 8.67722 46.4218 8.4748ZM49.3016 2.71696V10.9232H47.0641V9.97745C46.4838 10.6898 45.6444 11.0452 44.5452 11.0448C43.825 11.0554 43.1142 10.8772 42.4799 10.5261C41.8695 10.1862 41.367 9.67285 41.0311 9.04671C40.3278 7.65107 40.3264 5.98958 41.0283 4.59298C41.3642 3.96683 41.8667 3.45352 42.4766 3.11357C43.1123 2.76248 43.8241 2.58379 44.5452 2.59444C45.5759 2.59444 46.3815 2.92471 46.9623 3.58572V2.71599H49.3016V2.71696Z" fill="#410099"/>
<path d="M63.4245 3.499C64.0166 4.10384 64.3126 5.01086 64.3126 6.22054V10.9154H61.9837V6.58906C61.9837 5.9387 61.8518 5.45347 61.5882 5.13289C61.3038 4.80311 60.8891 4.62587 60.4622 4.65299C59.9733 4.62829 59.499 4.82636 59.164 5.19439C58.8454 5.55565 58.6864 6.09124 58.6864 6.80213V10.9183H56.3598V6.58954C56.3598 5.29899 55.8526 4.65348 54.8378 4.65299C54.3536 4.63023 53.8844 4.82829 53.5546 5.19439C53.2365 5.55565 53.0775 6.09124 53.077 6.80213V10.9183H50.7494V2.71693H52.9733V3.66268C53.275 3.3145 53.6503 3.04283 54.0702 2.86898C54.523 2.68254 55.0071 2.58957 55.4946 2.59538C56.0262 2.58714 56.5521 2.70433 57.0325 2.93823C57.4825 3.16051 57.8648 3.50723 58.136 3.93919C58.4677 3.51014 58.8951 3.17019 59.3817 2.9484C59.901 2.71111 60.4636 2.5915 61.0313 2.59828C62.0362 2.59634 62.8343 2.89707 63.4264 3.49997" fill="#410099"/>
<path d="M71.6589 8.47483C72.4114 7.50825 72.4114 6.13151 71.6589 5.16493C70.8585 4.34072 69.5626 4.34072 68.7617 5.16493C67.9979 6.12763 67.9979 7.51261 68.7617 8.47483C69.1385 8.885 69.6668 9.11018 70.2143 9.09323C70.7595 9.11115 71.2859 8.88597 71.6584 8.47483M67.974 10.5039C67.3312 10.162 66.7936 9.64141 66.422 9.00122C65.6779 7.6482 65.6779 5.99107 66.422 4.63805C66.794 3.99786 67.3317 3.47777 67.974 3.1354C69.3815 2.41385 71.0353 2.41385 72.4428 3.1354C73.08 3.48067 73.612 4.00028 73.9808 4.63805C74.7249 5.99107 74.7249 7.6482 73.9808 9.00122C73.6115 9.63947 73.0781 10.1596 72.44 10.5039C71.033 11.2254 69.3801 11.2254 67.9735 10.5039" fill="#410099"/>
<path d="M76.9065 10.7921C76.3735 10.6666 75.8631 10.4531 75.3962 10.1596L76.1666 8.45163C76.5668 8.70538 77.0008 8.89812 77.455 9.02354C77.9363 9.16737 78.4346 9.24098 78.9356 9.2434C79.9134 9.2434 80.4018 8.994 80.4018 8.49473C80.3957 8.25212 80.231 8.04486 80.0016 7.99207C79.6019 7.86132 79.1899 7.77416 78.7724 7.73251C78.2272 7.65454 77.6881 7.53735 77.1584 7.38191C76.7376 7.25213 76.3571 7.01 76.055 6.68022C75.7233 6.28409 75.5558 5.76884 75.5886 5.24633C75.5811 4.74899 75.734 4.26328 76.0235 3.86619C76.3534 3.43472 76.7953 3.10978 77.2978 2.92818C77.9312 2.69089 78.6016 2.57758 79.2753 2.59307C79.8407 2.59307 80.4041 2.65748 80.9559 2.78339C81.441 2.88266 81.9083 3.0599 82.3404 3.30881L81.57 5.00178C80.8696 4.595 80.0785 4.38435 79.2749 4.39113C78.893 4.3674 78.5115 4.441 78.1639 4.60517C77.9485 4.6996 77.8045 4.91316 77.7937 5.15432C77.7918 5.40613 77.957 5.62647 78.1934 5.68797C78.6086 5.8255 79.0351 5.92332 79.4677 5.98095C80.0072 6.06714 80.5416 6.18676 81.0671 6.3393C81.4809 6.46617 81.8543 6.70588 82.1476 7.03276C82.4718 7.42065 82.6364 7.92428 82.6064 8.43565C82.612 8.92669 82.4553 9.40562 82.1621 9.79255C81.8229 10.2201 81.3734 10.5402 80.8658 10.7155C80.2165 10.9485 79.5315 11.0594 78.8442 11.0434C78.1906 11.0434 77.5394 10.9586 76.9065 10.7906" fill="#410099"/>
<path d="M36.7922 21.9818C37.1956 21.7498 37.5264 21.4036 37.746 20.9837C37.9806 20.5309 38.0993 20.0239 38.0904 19.5106C38.0997 18.9997 37.981 18.4946 37.746 18.0447C37.5241 17.6278 37.1938 17.2825 36.7922 17.0486C35.9477 16.5711 34.9253 16.5711 34.0808 17.0486C33.682 17.2844 33.3541 17.6297 33.1336 18.0467C32.8985 18.4965 32.7798 19.0016 32.7888 19.5125C32.7798 20.0258 32.8985 20.5329 33.1336 20.9856C33.3513 21.404 33.6797 21.7503 34.0808 21.9837C34.9277 22.451 35.9448 22.451 36.7922 21.9837V21.9822V21.9818ZM37.3176 16.299C37.852 16.5997 38.2926 17.0506 38.5881 17.5992C39.2023 18.8011 39.2023 20.2384 38.5881 21.4404C38.2935 21.9876 37.8553 22.4384 37.3242 22.7401C36.7664 23.0534 36.1396 23.2123 35.5048 23.2011C34.9633 23.2094 34.428 23.0844 33.9429 22.8365C33.477 22.5919 33.0829 22.2244 32.8005 21.7706V25.8021H31.8396V15.8932H32.7592V17.3242C33.0369 16.8573 33.4315 16.4772 33.9016 16.223C34.3971 15.961 34.9474 15.8283 35.5038 15.8375C36.1363 15.8288 36.7607 15.9876 37.3167 16.2985" fill="#410099"/>
<path d="M44.7821 21.943C45.1767 21.7101 45.4994 21.3668 45.712 20.9522C46.1652 20.0326 46.1652 18.9445 45.712 18.0249C45.499 17.6108 45.1762 17.268 44.7821 17.036C43.9535 16.5721 42.9537 16.5721 42.1257 17.036C41.7306 17.269 41.4078 17.6128 41.1948 18.0273C40.7426 18.9474 40.7426 20.035 41.1948 20.9551C41.4088 21.3687 41.7316 21.7115 42.1257 21.944C42.9547 22.4089 43.9554 22.4089 44.7844 21.944H44.7821V21.943V21.943ZM46.982 15.8932V23.0849H46.0784V21.6626C45.8091 22.1309 45.4206 22.514 44.9552 22.7701C44.4687 23.0307 43.9273 23.1619 43.3797 23.1527C42.7572 23.1609 42.1435 23.0006 41.5997 22.6878C41.0719 22.3847 40.6375 21.9343 40.3456 21.3885C39.7432 20.1978 39.7432 18.7784 40.3456 17.5876C40.6351 17.0433 41.0686 16.5949 41.595 16.2946C42.1402 15.9862 42.7534 15.8283 43.3751 15.8365C43.9076 15.8288 44.4344 15.9532 44.9106 16.1992C45.3718 16.4423 45.7612 16.8084 46.0395 17.2593V15.8922H46.982V15.8932V15.8932Z" fill="#410099"/>
<path d="M50.345 16.2114C50.8517 15.9465 51.4152 15.8182 51.9829 15.8385V16.7911L51.7549 16.7775C51.1041 16.7407 50.4698 16.9973 50.0166 17.4806C49.5976 17.9494 49.3879 18.607 49.3879 19.454V23.1537H48.4388V15.8942H49.348V17.316C49.5549 16.8458 49.9049 16.4584 50.3446 16.2124" fill="#410099"/>
<path d="M54.3353 22.6873C53.7976 22.3846 53.3529 21.9323 53.0517 21.3817C52.4309 20.2031 52.4309 18.7803 53.0517 17.6016C53.3543 17.0544 53.799 16.6045 54.3353 16.3033C54.9063 15.9871 55.5462 15.8268 56.1937 15.8379C56.7529 15.8283 57.307 15.9527 57.8118 16.2007C58.2787 16.4341 58.6699 16.8021 58.9378 17.2602L58.2317 17.7527C58.014 17.4094 57.7105 17.1329 57.353 16.9527C56.9917 16.7735 56.5953 16.682 56.1941 16.6854C55.7179 16.6781 55.2483 16.7982 54.8303 17.0345C54.4291 17.2636 54.1012 17.6079 53.8854 18.0253C53.4326 18.9469 53.4326 20.036 53.8854 20.958C54.1026 21.3725 54.4305 21.7144 54.8303 21.9425C55.2488 22.1783 55.7193 22.2984 56.196 22.2907C56.5962 22.2946 56.9922 22.2059 57.3549 22.0306C57.7128 21.8549 58.0173 21.5808 58.2336 21.2379L58.9397 21.7294C58.6704 22.189 58.2768 22.5575 57.8071 22.7895C57.3042 23.0364 56.7525 23.1609 56.1955 23.1522C55.5472 23.1638 54.9063 23.0035 54.3348 22.6868" fill="#410099"/>
<path d="M61.8232 17.0201C61.4385 17.2496 61.1237 17.5857 60.9144 17.9905C60.6902 18.4307 60.5771 18.9222 60.5865 19.4196C60.5846 19.5198 60.5888 19.6205 60.6001 19.7203L65.5597 18.7363C65.4654 18.159 65.1768 17.6346 64.7443 17.2554C64.2986 16.8617 63.7266 16.653 63.1402 16.6699C62.6785 16.6632 62.2239 16.7847 61.8232 17.021M64.5918 22.0501C64.9554 21.8956 65.2782 21.6549 65.5343 21.3469L66.0687 21.976C65.7553 22.3609 65.3561 22.6622 64.9057 22.8539C63.7806 23.3077 62.5213 23.2457 61.4432 22.6835C60.8966 22.3837 60.4425 21.9314 60.1328 21.3784C59.8161 20.8041 59.6547 20.1527 59.6646 19.4922C59.6543 18.8341 59.8086 18.1842 60.1126 17.606C60.3988 17.0617 60.8276 16.6109 61.3494 16.3043C61.895 15.9891 62.512 15.8283 63.1369 15.8385C63.728 15.8302 64.3112 15.9818 64.8287 16.2772C65.3279 16.5649 65.7431 16.9847 66.0317 17.4937C66.3357 18.0336 66.4994 18.6457 66.506 19.2704L60.7305 20.42C60.8924 20.9789 61.2349 21.4631 61.7017 21.7919C62.1976 22.1333 62.7836 22.3077 63.3795 22.2907C63.7942 22.2946 64.2057 22.2132 64.5899 22.0505" fill="#410099"/>
<path d="M68.5975 22.6089C68.2386 22.1929 68.0552 21.6466 68.0875 21.0902V12.9373H69.0278V21.0084C69.0034 21.3605 69.1075 21.7091 69.3191 21.9861C69.549 22.2244 69.8685 22.3469 70.1936 22.3217C70.4123 22.328 70.6295 22.2859 70.8308 22.1982L70.8965 23.0035C70.6234 23.1033 70.3353 23.1541 70.0459 23.1537C69.5096 23.1905 68.9837 22.9929 68.5957 22.6094" fill="#410099"/>
<path d="M75.8832 21.943C76.2783 21.7101 76.6006 21.3668 76.8141 20.9522C77.2673 20.0326 77.2673 18.9445 76.8141 18.0249C76.6006 17.6108 76.2778 17.268 75.8832 17.036C75.0538 16.5711 74.0526 16.5711 73.2231 17.036C72.828 17.269 72.5052 17.6128 72.2918 18.0273C71.8395 18.9474 71.8395 20.035 72.2918 20.9551C72.5057 21.3697 72.8285 21.713 73.2231 21.9459C74.0526 22.4108 75.0538 22.4108 75.8832 21.9459V21.9435V21.943ZM78.0841 15.8927V23.0844H77.1796V21.6622C76.9103 22.1304 76.5218 22.5135 76.0559 22.7696C75.5694 23.0302 75.0275 23.1614 74.4795 23.1522C73.8569 23.1604 73.2432 23.0002 72.6995 22.6873C72.1731 22.3837 71.74 21.9333 71.4491 21.3881C70.8463 20.1973 70.8463 18.7779 71.4491 17.5871C71.7391 17.0428 72.1726 16.5944 72.6995 16.2941C73.2446 15.9857 73.8578 15.8278 74.4795 15.836C75.0125 15.8283 75.5393 15.9527 76.016 16.1987C76.4749 16.4428 76.8629 16.8084 77.1397 17.2588V15.8917H78.0841V15.8927V15.8927Z" fill="#410099"/>
<path d="M81.579 16.2114C82.0857 15.9465 82.6491 15.8182 83.2168 15.8385V16.7911L82.9888 16.7775C82.3381 16.7407 81.7042 16.9973 81.2505 17.4806C80.8311 17.9494 80.6214 18.607 80.6219 19.454V23.1537H79.6727V15.8942H80.582V17.316C80.7889 16.8458 81.1389 16.4584 81.5785 16.2124" fill="#410099"/>
<path d="M7.45414 3.05453V21.5687L7.3026 21.6704C5.19932 23.0888 4.34121 23.6646 3.99309 23.9019L3.75287 24.0665L3.74349 24.0733L3.73645 24.0786L3.72003 24.0883C2.94403 24.5367 1.9949 24.5227 1.23156 24.0515C0.854823 23.8186 0.543764 23.4883 0.328416 23.0936C0.112129 22.697 -0.000940173 22.2491 -1.83644e-06 21.7939V2.77027C0.010789 2.08552 0.279622 1.43226 0.749729 0.94897C1.21655 0.468586 1.84852 0.198854 2.5077 0.197885C2.85911 0.196916 3.20676 0.273914 3.52673 0.424518C3.67828 0.494251 3.82184 0.580934 3.95555 0.682144L3.96494 0.686986C3.99872 0.712652 4.03531 0.741223 4.06909 0.76931H4.07332L7.45461 3.05356V3.05453H7.45414Z" fill="#10CFC9"/>
<path d="M26.8603 12.3155C26.8603 13.1659 26.4587 13.9629 25.7836 14.4506L25.6011 14.5683C14.9411 21.6181 12.1988 23.4321 11.496 23.8985L11.2511 24.0655L11.2417 24.0723L11.2347 24.0777L11.2187 24.0873C9.99797 24.7818 8.46379 24.3401 7.76708 23.0946C7.54704 22.6999 7.43115 22.252 7.43068 21.7968V21.5721C8.491 20.8733 9.84408 19.975 11.5809 18.8278C13.3178 17.6806 15.4328 16.2816 18.0123 14.5736L18.1925 14.455C19.3363 13.6269 19.6131 11.9983 18.8104 10.8177C18.6039 10.5141 18.3374 10.2593 18.0287 10.0705L7.43021 3.0555V2.77124C7.44241 2.08408 7.71641 1.42936 8.19308 0.949461C8.67116 0.467624 9.31345 0.197408 9.98202 0.197408C10.3395 0.195955 10.6928 0.273436 11.0193 0.424041C11.1732 0.493774 11.3196 0.580456 11.4557 0.682151L11.4651 0.686993C11.4998 0.712659 11.5368 0.74123 11.5716 0.769317H11.5767L25.6175 10.0661C26.387 10.5368 26.8594 11.391 26.8599 12.314" fill="#10CFC9"/>
<path d="M19.3067 12.3455C19.3067 13.1969 18.9047 13.9949 18.2286 14.4835L18.0465 14.6017C15.4642 16.3121 13.3441 17.7116 11.6086 18.8617C9.8727 20.0118 8.51869 20.9092 7.45367 21.6089V3.06812L18.0634 10.0947C18.8338 10.5659 19.3063 11.4216 19.3063 12.3455" fill="#410099"/>
</g>
<g clip-path="url(#clip1_28_2)">
<path d="M188.053 14.5804L176.889 7.85036C175.756 7.16757 174.338 8.02226 174.338 9.38784V22.7213C174.338 24.0893 175.756 24.944 176.889 24.2588L188.053 17.5288C189.141 16.8723 189.141 15.2345 188.053 14.578V14.5804Z" fill="#273168"/>
<path d="M194.977 1.5H177.79C177.116 1.5 176.569 2.07058 176.569 2.77486V5.24341C176.569 5.69224 176.798 6.10764 177.172 6.33444L177.588 6.58512L188.749 13.3151C189.733 13.9072 190.307 14.9887 190.262 16.1848C190.223 17.2949 189.594 18.2904 188.675 18.8443L185.283 20.8903C184.77 21.2006 184.979 22.0195 185.573 22.0195H194.966C195.657 22.0195 196.217 21.4346 196.217 20.7136V2.79635C196.217 2.08013 195.66 1.5 194.975 1.5H194.977V1.5Z" fill="#06A2AD"/>
<path d="M120.073 16.9678C119.182 16.9678 118.399 16.7625 117.729 16.3542C117.058 15.9436 116.533 15.373 116.159 14.6425C115.786 13.9096 115.598 13.0668 115.598 12.1095C115.598 11.2047 115.781 10.3977 116.15 9.68867C116.519 8.982 117.03 8.42336 117.682 8.01273C118.337 7.6021 119.08 7.39917 119.911 7.39917C120.742 7.39917 121.498 7.59255 122.139 7.97692C122.78 8.36128 123.284 8.89844 123.646 9.5884C124.008 10.2783 124.189 11.0757 124.189 11.9805C124.189 12.1286 124.182 12.2885 124.17 12.4556C124.159 12.6228 124.14 12.7994 124.117 12.9856H117.77C117.831 13.4201 117.963 13.795 118.172 14.1125C118.381 14.43 118.645 14.6735 118.966 14.8478C119.286 15.0221 119.655 15.108 120.071 15.108C120.57 15.108 121.018 15.003 121.417 14.7905C121.817 14.5804 122.093 14.3011 122.246 13.9525L124.01 14.5661C123.653 15.3109 123.126 15.8982 122.422 16.3256C121.719 16.7529 120.937 16.9678 120.069 16.9678H120.073V16.9678ZM122 11.2715C121.988 10.8871 121.886 10.5386 121.696 10.2282C121.505 9.91785 121.255 9.67195 120.946 9.4929C120.637 9.31385 120.291 9.22313 119.913 9.22313C119.581 9.22313 119.265 9.30907 118.968 9.48335C118.671 9.65763 118.418 9.89637 118.211 10.1996C118.002 10.5028 117.87 10.8609 117.81 11.2691H122V11.2715Z" fill="#06A2AD"/>
<path d="M125.596 7.53048H127.413L127.555 8.40426C127.852 8.0939 128.203 7.848 128.607 7.66894C129.01 7.48989 129.452 7.39917 129.925 7.39917C130.519 7.39917 131.053 7.5257 131.529 7.78115C132.005 8.0366 132.39 8.40426 132.688 8.88889C132.996 8.40426 133.419 8.0366 133.953 7.78115C134.487 7.52809 135.065 7.39917 135.682 7.39917C136.383 7.39917 136.991 7.55196 137.509 7.85516C138.027 8.15836 138.428 8.60718 138.714 9.19687C138.999 9.78655 139.141 10.5219 139.141 11.4028V16.8389H137.107V11.6821C137.107 10.8991 136.95 10.3118 136.634 9.91308C136.318 9.51678 135.859 9.31624 135.253 9.31624C134.647 9.31624 134.152 9.51916 133.809 9.92024C133.463 10.3237 133.291 10.9229 133.291 11.7156V16.8341H131.276V11.6774C131.276 10.8943 131.13 10.307 130.84 9.9083C130.547 9.512 130.099 9.31146 129.493 9.31146C128.887 9.31146 128.405 9.51439 128.084 9.91547C127.764 10.3189 127.604 10.911 127.604 11.6941V16.8317H125.589V7.52331L125.596 7.53048V7.53048Z" fill="#06A2AD"/>
<path d="M142.333 15.4614L142.565 15.4065V20.5632H140.55V7.53292H142.368L142.509 8.68602C142.806 8.32553 143.192 8.02233 143.668 7.77404C144.144 7.52576 144.719 7.40161 145.397 7.40161C146.17 7.40161 146.855 7.59976 147.456 7.99846C148.057 8.39476 148.526 8.95102 148.865 9.66485C149.204 10.3787 149.374 11.219 149.374 12.1883C149.374 13.1576 149.204 13.9812 148.865 14.7022C148.526 15.4232 148.06 15.9818 147.465 16.3782C146.871 16.7745 146.182 16.975 145.397 16.975C144.684 16.975 144.067 16.8294 143.542 16.5381C143.02 16.2468 142.616 15.8887 142.331 15.4686V15.4614H142.333ZM147.219 12.1859C147.219 11.3288 147.004 10.6341 146.569 10.1017C146.135 9.56935 145.58 9.30196 144.903 9.30196C144.476 9.30196 144.086 9.41417 143.735 9.6362C143.384 9.86061 143.101 10.1829 142.888 10.6055C142.674 11.028 142.567 11.5556 142.567 12.1883C142.567 12.821 142.674 13.3342 142.888 13.7616C143.101 14.1889 143.384 14.516 143.735 14.738C144.086 14.9624 144.476 15.0723 144.903 15.0723C145.58 15.0723 146.135 14.8049 146.569 14.2725C147.004 13.7401 147.219 13.043 147.219 12.1883V12.1859Z" fill="#06A2AD"/>
<path d="M156.556 16.8388L156.377 15.7025C156.092 16.0988 155.753 16.4043 155.36 16.6144C154.968 16.8245 154.446 16.932 153.791 16.932C153.174 16.932 152.637 16.8245 152.187 16.6073C151.734 16.39 151.389 16.0868 151.145 15.6953C150.887 15.2847 150.766 14.8 150.78 14.2438C150.787 13.9644 150.836 13.6875 150.927 13.4273C151.34 12.2599 152.378 11.5795 154.042 11.3861L156.377 11.1259V10.4001C156.377 10.1017 156.252 9.83189 156.004 9.59077C155.755 9.34964 155.356 9.22789 154.808 9.22789C154.332 9.22789 153.919 9.34964 153.568 9.59077C153.218 9.83189 152.983 10.1948 152.865 10.6794L151.117 10.0086C151.342 9.18969 151.793 8.54987 152.463 8.0915C153.134 7.63312 153.951 7.40393 154.915 7.40393C156.08 7.40393 156.953 7.70713 157.536 8.31591C158.118 8.92469 158.408 9.70059 158.408 10.6436V16.8436H156.554V16.8388H156.556ZM156.38 12.7421L154.239 13.0214C153.787 13.0835 153.448 13.2172 153.222 13.4225C152.997 13.6278 152.884 13.8857 152.884 14.196C152.884 14.4825 152.993 14.726 153.213 14.9313C153.434 15.1366 153.733 15.2393 154.114 15.2393C154.601 15.2393 155.015 15.1462 155.354 14.96C155.692 14.7738 155.948 14.5064 156.12 14.1602C156.291 13.814 156.377 13.3843 156.377 12.8758V12.7445H156.38V12.7421Z" fill="#06A2AD"/>
<path d="M166.821 7.53049H168.639V15.4423C168.639 16.4975 168.388 17.4071 167.889 18.1686C167.39 18.9326 166.67 19.5223 165.732 19.9377C164.795 20.3531 163.664 20.5608 162.346 20.5608L162.041 18.7559C163.539 18.7177 164.676 18.4217 165.456 17.8631C166.234 17.3044 166.624 16.5046 166.624 15.4614V15.4423H166.856C166.582 15.8648 166.187 16.2229 165.67 16.5214C165.152 16.8198 164.537 16.9678 163.824 16.9678C163.04 16.9678 162.343 16.7696 161.737 16.371C161.131 15.9746 160.658 15.416 160.319 14.695C159.98 13.9764 159.811 13.1384 159.811 12.1811C159.811 11.2238 159.98 10.3882 160.319 9.66719C160.658 8.94859 161.129 8.38995 161.737 7.99125C162.343 7.59495 163.04 7.39441 163.824 7.39441C164.263 7.39441 164.665 7.45409 165.027 7.57108C165.389 7.69044 165.709 7.84324 165.99 8.03661C166.269 8.22999 166.498 8.44247 166.677 8.67882L166.819 7.52571V7.53049H166.821ZM161.974 12.1835C161.974 13.0406 162.188 13.7353 162.615 14.2677C163.042 14.8024 163.613 15.0674 164.326 15.0674C164.741 15.0674 165.122 14.9528 165.468 14.7237C165.811 14.4945 166.092 14.1626 166.306 13.7281C166.519 13.2936 166.626 12.7779 166.626 12.1835C166.626 11.589 166.519 11.0375 166.306 10.6102C166.092 10.1829 165.809 9.8558 165.458 9.63377C165.108 9.40936 164.73 9.29954 164.326 9.29954C163.613 9.29954 163.042 9.56215 162.615 10.0898C162.188 10.6174 161.974 11.3145 161.974 12.1835V12.1835Z" fill="#06A2AD"/>
<path d="M108.373 7.53052L110.709 14.6043L113.063 7.53052H115.184L111.797 16.8389H109.587L106.217 7.53052H108.373Z" fill="#06A2AD"/>
</g>
<g clip-path="url(#clip2_28_2)">
<path d="M244.37 5.27455C247.851 5.16301 252.126 9.11143 256.832 9.80296C257.158 9.84757 258.732 9.51296 258.732 9.51296L259.711 9.29732C254.62 9.4386 249.484 3.88405 244.029 3.80969L244.37 5.27455V5.27455Z" fill="#00AAB5"/>
<path d="M256.609 6.56102C252.015 6.85102 247.406 2.64978 242.804 3.49746C240.963 3.83208 243.799 4.2113 243.799 4.2113C246.626 5.05155 249.788 6.33794 252.505 6.9105C252.831 6.97742 253.188 6.9923 253.499 7.04435C253.826 7.07409 255.399 7.02947 255.399 7.02947L256.609 6.56102V6.56102Z" fill="#00AAB5"/>
<path d="M261.701 4.38971C259.162 5.26714 257.477 7.92916 252.542 6.91789C257.077 6.77661 259.771 4.03279 262.725 3.2446C263.734 2.98434 263.14 3.89151 261.701 4.38971V4.38971Z" fill="#C5D335"/>
<path d="M267.304 4.35999C266.325 3.92128 267.43 4.67973 266.681 4.18896C262.443 4.82101 261.649 9.6989 256.609 9.76582C261.901 11.1191 264.944 3.65359 269.457 4.81357C269.086 5.12588 267.341 4.82844 267.304 4.35999V4.35999Z" fill="#C5D335"/>
<path d="M250.842 10.6506C256.023 10.7101 259.259 2.61996 264.306 3.1256C268.239 3.5197 268.944 5.3266 272.47 2.89509C272.5 2.87278 272.596 2.82073 272.626 2.9397C272.641 3.0215 272.641 3.10329 272.596 3.17021C269.227 6.60556 266.681 4.24097 264.113 4.25584C260.676 4.27071 259.793 8.07041 254.672 11.067C254.538 11.1117 254.375 11.2009 254.152 11.2827C253.841 11.3942 253.492 11.4835 253.492 11.4835L250.842 10.6506V10.6506Z" fill="#00AAB5"/>
<path d="M236.436 9.71376C240.919 3.57922 243.843 5.03664 246.003 6.9402C249.202 9.75838 250.523 12.993 254.679 11.0671C252.356 12.0114 250.976 9.5353 247.042 5.59432C245.031 3.58665 241.513 0.761045 236.221 9.46838C236.102 9.65428 236.332 9.86991 236.436 9.71376V9.71376Z" fill="#C5D335"/>
<path d="M224.531 17.1569C224.375 16.8075 223.893 16.7405 223.076 16.7405H222.149C220.872 16.7405 220.709 17.1569 220.709 18.0864V20.3469C220.709 21.3879 220.805 21.8564 222.163 21.8564C222.675 21.8564 224.546 21.6333 225.526 21.5069L225.592 22.6297C224.598 22.8528 222.49 23.1279 221.748 23.1279C219.877 23.1279 219.217 22.2653 219.217 20.4213V18.1459C219.217 16.3539 219.892 15.4839 221.733 15.4839H223.507C224.754 15.4839 225.459 15.8854 225.793 16.7034L224.531 17.1569V17.1569Z" fill="#A7A9AC"/>
<path d="M232.087 19.5811L229.704 19.9157C228.613 20.0793 228.331 20.2206 228.264 20.8973C228.331 21.5516 228.598 21.8565 229.704 21.8565H230.135C231.478 21.8565 232.087 21.1501 232.087 20.1239V19.5811V19.5811ZM232.562 22.9942L232.242 22.3547C231.73 22.8678 230.751 23.128 230.224 23.128H229.281C226.913 23.128 226.787 21.3285 226.787 20.9493C226.787 20.5701 226.884 18.8822 229.281 18.6591L232.087 18.3988V17.8188C232.087 17.2909 231.99 16.7481 230.617 16.7481C230.12 16.7481 228.235 16.9712 227.27 17.0976L227.203 15.9748C228.183 15.7666 230.29 15.4766 231.048 15.4766C232.903 15.4766 233.564 16.3614 233.564 18.2055V22.9942H232.562V22.9942Z" fill="#A7A9AC"/>
<path d="M238.677 23.1205C236.807 23.1205 236.161 22.258 236.161 20.4139V16.7257H234.454V15.5732H236.161V13.1788H237.631V15.5657H239.568V16.7183H237.631V20.3395C237.631 21.3805 237.727 21.849 239.086 21.849C239.434 21.849 239.724 21.7375 240.206 21.6408V22.8305C239.65 22.9941 239.19 23.1205 238.677 23.1205Z" fill="#A7A9AC"/>
<path d="M245.216 16.7405H244.288C242.93 16.7405 242.849 17.2239 242.849 18.2649V18.9564L245.216 18.6962C246.322 18.5846 246.656 18.3913 246.656 17.7221C246.656 17.0528 246.322 16.7405 245.216 16.7405V16.7405ZM245.647 19.9677C243.836 20.0792 242.841 20.1313 242.841 20.1313V20.3543C242.841 21.3954 242.938 21.8638 244.296 21.8638C244.808 21.8638 246.678 21.6407 247.658 21.5143L247.725 22.6371C246.73 22.8602 244.622 23.1353 243.88 23.1353C242.01 23.1353 241.349 22.2728 241.349 20.4287V18.2128C241.349 16.3687 242.002 15.4839 243.865 15.4839H245.639C247.131 15.4839 248.133 16.2498 248.133 17.7295C248.148 19.0977 247.139 19.871 245.647 19.9677V19.9677Z" fill="#A7A9AC"/>
<path d="M255.073 23.009V18.2501C255.073 17.2091 254.976 16.7407 253.596 16.7407C253.136 16.7407 252.156 16.934 251.228 17.0604V23.009H249.736V15.5881H250.902L251.221 15.9599C252.178 15.7517 253.314 15.4766 254.019 15.4766C255.874 15.4766 256.535 16.3614 256.535 18.1832V23.009H255.073Z" fill="#A7A9AC"/>
<path d="M263.556 18.265C263.556 17.224 263.46 16.7407 262.087 16.7407H261.159C259.801 16.7407 259.704 17.224 259.704 18.265V20.347C259.704 21.388 259.801 21.8565 261.159 21.8565H262.087C263.467 21.8565 263.556 21.3955 263.556 20.347V18.265ZM262.517 23.128H260.743C258.888 23.128 258.227 22.2655 258.227 20.4214V18.2055C258.227 16.3614 258.888 15.4766 260.743 15.4766H262.517C264.373 15.4766 265.033 16.3614 265.033 18.2055V20.4214C265.033 22.258 264.373 23.128 262.517 23.128V23.128Z" fill="#A7A9AC"/>
</g>
<g clip-path="url(#clip3_28_2)">
<path d="M395.175 4.47473H295.635V21.5253H395.175V4.47473Z" fill="#FCFC30"/>
<path fill-rule="evenodd" clip-rule="evenodd" d="M317.47 12.2717V10.1064H318.236C318.931 10.1064 319.421 10.5631 319.421 11.1855C319.421 12.0064 318.794 12.2646 318.344 12.2646H317.627L317.469 12.2708L317.47 12.2717ZM317.896 13.5663H318.168C319.204 13.5663 319.531 14.024 319.531 14.7754C319.531 15.9596 318.55 15.9721 318.114 15.9721H317.471V13.5797L317.897 13.5663H317.896ZM329.97 17.2729V12.6484L331.9 17.2729H333.98V10.3414H332.482V14.8235L330.605 10.3414H328.474V17.2738H329.97V17.2729ZM337.326 17.4768C338.858 17.4768 339.752 16.8696 339.752 14.9785H338.01C337.989 15.5367 337.98 16.4182 337.326 16.4182C336.585 16.4182 336.478 15.9712 336.478 13.8236C336.478 11.6761 336.648 11.2282 337.293 11.2282C337.757 11.2282 337.966 11.5799 337.966 12.5201H339.698C339.763 11.0021 338.919 10.1696 337.251 10.1696C334.764 10.1696 334.692 11.7491 334.692 13.8228C334.692 15.8964 334.628 17.4759 337.326 17.4759V17.4768ZM323.486 17.2729L323.922 15.737H325.791L326.216 17.2729H328.065L325.982 10.3405H323.867L321.743 17.2729H323.485H323.486ZM325.515 14.6704H324.175L324.813 11.8337L325.514 14.6704H325.515ZM342.968 16.4182C342.178 16.4182 342.075 15.6347 342.075 13.8236C342.075 12.0126 342.178 11.2282 342.968 11.2282C343.757 11.2282 343.86 12.0117 343.86 13.8236C343.86 15.6355 343.757 16.4182 342.968 16.4182ZM342.968 17.4768C345.665 17.4768 345.665 15.6747 345.665 13.8236C345.665 11.9726 345.665 10.1705 342.968 10.1705C340.27 10.1705 340.269 11.953 340.269 13.8236C340.269 15.6943 340.269 17.4768 342.968 17.4768ZM385.946 17.2729V10.3414H384.182V17.2738H385.946V17.2729ZM390.803 17.2729V16.2241H388.744V10.3414H386.98V17.2738H390.803V17.2729ZM364.143 17.2747C364.974 17.2747 367.038 17.1803 367.038 15.0337C367.038 13.8726 366.675 13.0633 365.286 12.887C366.35 12.676 366.882 11.9717 366.882 10.9985C366.882 9.19195 365.649 8.80464 364.157 8.80464H360.678V17.2747H364.143V17.2747ZM362.815 12.2833V10.1179H363.847C364.412 10.1179 364.813 10.5756 364.813 11.1971C364.813 12.0189 364.303 12.2762 363.936 12.2762H363.351L362.815 12.2833ZM363.352 13.5788H363.792C364.635 13.5788 364.901 14.0364 364.901 14.787C364.901 15.9721 364.102 15.9837 363.747 15.9837H362.815V13.5921L363.352 13.5788ZM349.34 11.3983H350.056C351.02 11.3983 351.02 12.5255 351.02 13.8067C351.02 15.5501 350.854 16.2143 350.01 16.2143H349.34V11.3983ZM347.583 17.272H350.218C352.981 17.272 352.799 14.8253 352.799 13.756C352.799 11.5897 352.403 10.3174 350.283 10.3174H347.584V17.272H347.583ZM356.154 16.4226C355.363 16.4226 355.262 15.6427 355.262 13.8379C355.262 12.0331 355.363 11.254 356.154 11.254C356.945 11.254 357.047 12.034 357.047 13.8379C357.047 15.6418 356.945 16.4226 356.154 16.4226ZM356.154 17.4759C358.854 17.4759 358.854 15.681 358.854 13.8379C358.854 11.9948 358.854 10.2016 356.154 10.2016C353.453 10.2016 353.454 11.9752 353.454 13.8379C353.454 15.7005 353.454 17.4759 356.154 17.4759ZM376.291 14.6731H374.952L375.59 11.8372L376.291 14.6731H376.291ZM381.192 17.272C382.353 17.272 383.528 17.1171 383.528 15.3212C383.528 13.2485 380.524 13.455 380.524 12.14C380.524 11.66 380.817 11.4001 381.31 11.4001H382.918V10.3334H380.66C378.803 10.3334 378.343 11.1712 378.343 12.2566C378.343 14.3205 381.673 14.2733 381.673 15.4334C381.673 15.9044 381.42 16.2205 380.905 16.2205H378.524L376.759 10.3387H374.644L372.691 16.6479L371.465 13.9358C372.363 13.7684 372.722 13.1986 372.725 12.1533C372.728 10.9727 372.023 10.3387 370.929 10.3387H367.623V17.2711H369.431V11.4063H370.03C370.541 11.4063 370.983 11.7785 370.983 12.4596C370.983 13.0383 370.694 13.512 370.229 13.4817L369.726 13.4889L371.371 17.2729H374.262L374.699 15.7362H376.567L376.993 17.2729H381.193L381.192 17.272ZM318.803 17.272C319.634 17.272 321.698 17.1786 321.698 15.0319C321.698 13.8708 321.334 13.0606 319.945 12.8852C321.009 12.6742 321.542 11.9708 321.542 10.9967C321.542 9.18928 320.309 8.80286 318.815 8.80286H315.337V17.272H318.802H318.803Z" fill="#465EFF"/>
<path fill-rule="evenodd" clip-rule="evenodd" d="M300.006 17.5854L301.336 16.6995L302.665 17.5854L300.006 19.3581V17.5854V17.5854ZM312.771 8.3683L311.441 9.25511L310.112 8.3683L312.772 6.59558V8.3683H312.771ZM312.771 15.1039L310.111 13.3312L306.92 15.4583L308.249 16.3442L306.521 17.4964L302.799 15.0149L308.915 10.9379L307.585 10.052L300.006 15.1039L306.388 19.3581L312.77 15.1039H312.771ZM300.006 10.8498L302.665 12.6225L305.856 10.4954L304.527 9.60948L306.255 8.45734L309.978 10.9388L303.862 15.0158L305.191 15.9026L312.77 10.8507L306.389 6.59647L300.006 10.8498Z" fill="#465EFF"/>
</g>
<defs>
<clipPath id="clip0_28_2">
<rect width="83.2168" height="25.6052" fill="white" transform="translate(0 0.197388)"/>
</clipPath>
<clipPath id="clip1_28_2">
<rect width="90" height="23" fill="white" transform="translate(106.217 1.5)"/>
</clipPath>
<clipPath id="clip2_28_2">
<rect width="53.4179" height="20.2708" fill="white" transform="translate(219.217 2.86462)"/>
</clipPath>
<clipPath id="clip3_28_2">
<rect width="99.5405" height="17.0506" fill="white" transform="translate(295.635 4.47473)"/>
</clipPath>
</defs>
</svg>
