<svg width="111" height="34" viewBox="0 0 111 34" fill="none" xmlns="http://www.w3.org/2000/svg">
<g clip-path="url(#clip0_9_42)">
<path d="M53.8801 3.27109L49.42 13.8985H46.2571L41.8183 3.27109H44.9811L47.9087 10.5006L50.9313 3.27109H53.8801Z" fill="#410099"/>
<path d="M61.9205 10.7298C62.9612 9.49002 62.9612 7.67902 61.9205 6.43926C61.6676 6.17687 61.3629 5.97034 61.0256 5.83287C59.9773 5.42861 58.7908 5.66401 57.9754 6.43926C56.9328 7.6784 56.9328 9.49065 57.9754 10.7298C58.7908 11.505 59.9773 11.7411 61.0256 11.3362C61.3629 11.1987 61.6676 10.9922 61.9205 10.7298ZM65.7617 3.26609V13.9036H62.7772V12.6776C62.0031 13.601 60.8835 14.0618 59.4172 14.0611C58.4566 14.075 57.5085 13.844 56.6624 13.3888C55.8483 12.9482 55.178 12.2828 54.7299 11.4711C53.7919 9.66202 53.79 7.50828 54.7262 5.69791C55.1743 4.88626 55.8445 4.22086 56.6581 3.7802C57.506 3.32509 58.4554 3.09346 59.4172 3.10727C60.7921 3.10727 61.8666 3.53538 62.6414 4.39223V3.26483H65.7617V3.26609Z" fill="#410099"/>
<path d="M84.5997 4.27987C85.3895 5.0639 85.7844 6.23964 85.7844 7.80771V13.8935H82.6779V8.28541C82.6779 7.44237 82.502 6.81338 82.1503 6.39783C81.7711 5.97034 81.2178 5.7406 80.6484 5.77575C79.9963 5.74373 79.3636 6.00048 78.9168 6.47755C78.4918 6.94584 78.2797 7.6401 78.2797 8.56161V13.8973H75.1763V8.28604C75.1763 6.61314 74.4998 5.77638 73.1462 5.77575C72.5004 5.74624 71.8745 6.00299 71.4346 6.47755C71.0103 6.94584 70.7982 7.6401 70.7975 8.56161V13.8973H67.6929V3.26609H70.6592V4.49204C71.0616 4.0407 71.5623 3.68855 72.1224 3.46319C72.7263 3.22152 73.3721 3.10099 74.0223 3.10853C74.7314 3.09786 75.4329 3.24977 76.0737 3.55296C76.6739 3.84109 77.1839 4.29054 77.5456 4.85048C77.9881 4.29431 78.5582 3.85364 79.2071 3.56614C79.8999 3.25855 80.6502 3.10351 81.4075 3.11229C82.7479 3.10978 83.8124 3.4996 84.6022 4.28113" fill="#410099"/>
<path d="M95.5832 10.7298C96.587 9.47681 96.587 7.69218 95.5832 6.43923C94.5156 5.37084 92.7871 5.37084 91.7189 6.43923C90.7001 7.68716 90.7001 9.48246 91.7189 10.7298C92.2214 11.2614 92.9261 11.5533 93.6564 11.5314C94.3836 11.5546 95.0857 11.2627 95.5826 10.7298M90.6681 13.3599C89.8108 12.9168 89.0936 12.242 88.598 11.4121C87.6054 9.65823 87.6054 7.51014 88.598 5.75626C89.0942 4.92641 89.8114 4.25223 90.6681 3.80842C92.5456 2.8731 94.7515 2.8731 96.629 3.80842C97.4788 4.25599 98.1885 4.92954 98.6803 5.75626C99.6729 7.51014 99.6729 9.65823 98.6803 11.4121C98.1878 12.2395 97.4763 12.9136 96.6252 13.3599C94.7484 14.2953 92.5437 14.2953 90.6675 13.3599" fill="#410099"/>
<path d="M102.583 13.7335C101.872 13.5709 101.191 13.2941 100.568 12.9137L101.596 10.6997C102.13 11.0286 102.709 11.2784 103.314 11.441C103.957 11.6274 104.621 11.7229 105.29 11.726C106.594 11.726 107.245 11.4027 107.245 10.7555C107.237 10.441 107.017 10.1724 106.711 10.1039C106.178 9.93446 105.629 9.82146 105.072 9.76748C104.345 9.66641 103.625 9.5145 102.919 9.313C102.358 9.14477 101.85 8.83091 101.447 8.40342C101.005 7.88994 100.781 7.22204 100.825 6.54472C100.815 5.90004 101.019 5.27043 101.405 4.75569C101.845 4.19638 102.435 3.77518 103.105 3.53978C103.95 3.23219 104.844 3.0853 105.743 3.10539C106.497 3.10539 107.248 3.18888 107.984 3.35209C108.631 3.48077 109.255 3.71052 109.831 4.03317L108.803 6.22771C107.869 5.70042 106.814 5.42736 105.742 5.43615C105.233 5.40539 104.724 5.5008 104.26 5.7136C103.973 5.83601 103.781 6.11284 103.766 6.42545C103.764 6.75187 103.984 7.03748 104.299 7.11721C104.853 7.29548 105.422 7.42228 105.999 7.49698C106.719 7.60872 107.432 7.76377 108.133 7.9615C108.685 8.12597 109.183 8.43669 109.574 8.86041C110.006 9.36322 110.226 10.0161 110.186 10.6789C110.193 11.3155 109.984 11.9363 109.593 12.4378C109.141 12.9921 108.541 13.4071 107.864 13.6343C106.998 13.9362 106.084 14.08 105.167 14.0593C104.296 14.0593 103.427 13.9494 102.583 13.7316" fill="#410099"/>
<path d="M49.0758 28.2384C49.614 27.9377 50.0552 27.4889 50.348 26.9447C50.6609 26.3577 50.8193 25.7005 50.8074 25.0351C50.8199 24.3728 50.6616 23.7181 50.348 23.135C50.052 22.5945 49.6115 22.1469 49.0758 21.8437C47.9493 21.2248 46.5857 21.2248 45.4592 21.8437C44.9273 22.1494 44.4899 22.597 44.1957 23.1375C43.8822 23.7206 43.7239 24.3754 43.7358 25.0376C43.7239 25.703 43.8822 26.3602 44.1957 26.9472C44.4861 27.4895 44.9242 27.9383 45.4592 28.2409C46.5888 28.8467 47.9456 28.8467 49.0758 28.2409V28.239V28.2384ZM49.7767 20.872C50.4895 21.2618 51.0771 21.8462 51.4714 22.5575C52.2905 24.1155 52.2905 25.9786 51.4714 27.5366C51.0784 28.2459 50.4939 28.8303 49.7854 29.2214C49.0414 29.6276 48.2053 29.8335 47.3586 29.819C46.6364 29.8297 45.9223 29.6677 45.2752 29.3463C44.6538 29.0293 44.1281 28.5529 43.7514 27.9647V33.1906H42.4698V20.346H43.6963V22.2009C44.0668 21.5958 44.5931 21.103 45.2202 20.7734C45.881 20.4338 46.6151 20.2618 47.3573 20.2738C48.2009 20.2625 49.0338 20.4684 49.7754 20.8714" fill="#410099"/>
<path d="M59.7333 28.1882C60.2596 27.8862 60.6901 27.4412 60.9736 26.9038C61.5781 25.7118 61.5781 24.3013 60.9736 23.1092C60.6895 22.5725 60.2589 22.1281 59.7333 21.8274C58.6281 21.226 57.2945 21.226 56.1899 21.8274C55.663 22.1293 55.2325 22.575 54.9483 23.1124C54.3451 24.305 54.3451 25.7149 54.9483 26.9076C55.2337 27.4437 55.6643 27.8881 56.1899 28.1894C57.2957 28.792 58.6306 28.792 59.7364 28.1894H59.7333V28.1882ZM62.6677 20.3459V29.6684H61.4624V27.8247C61.1032 28.4317 60.585 28.9283 59.9642 29.2603C59.3152 29.598 58.593 29.7682 57.8627 29.7562C57.0323 29.7669 56.2137 29.5591 55.4884 29.1536C54.7844 28.7607 54.2049 28.1769 53.8156 27.4694C53.0121 25.9258 53.0121 24.086 53.8156 22.5424C54.2018 21.8368 54.78 21.2555 55.4822 20.8663C56.2093 20.4665 57.0273 20.2618 57.8565 20.2725C58.5668 20.2625 59.2695 20.4238 59.9047 20.7427C60.5199 21.0578 61.0393 21.5324 61.4104 22.1168V20.3447H62.6677V20.3459Z" fill="#410099"/>
<path d="M67.1535 20.7584C67.8293 20.415 68.5809 20.2487 69.3382 20.275V21.5098L69.034 21.4922C68.166 21.4445 67.3199 21.7772 66.7154 22.4036C66.1566 23.0113 65.8768 23.8637 65.8768 24.9616V29.7575H64.6108V20.3472H65.8236V22.1902C66.0996 21.5807 66.5665 21.0785 67.1528 20.7596" fill="#410099"/>
<path d="M72.476 29.153C71.7588 28.7607 71.1655 28.1744 70.7637 27.4606C69.9358 25.9327 69.9358 24.0885 70.7637 22.5606C71.1674 21.8512 71.7607 21.2681 72.476 20.8776C73.2376 20.4677 74.0912 20.2599 74.9548 20.2744C75.7007 20.2618 76.4398 20.4232 77.1132 20.7446C77.7359 21.0471 78.2578 21.5242 78.6151 22.118L77.6733 22.7564C77.3829 22.3114 76.978 21.9529 76.5011 21.7194C76.0193 21.4872 75.4905 21.3685 74.9554 21.3729C74.3202 21.3635 73.6938 21.5192 73.1362 21.8255C72.6011 22.1224 72.1637 22.5687 71.8758 23.1098C71.2719 24.3044 71.2719 25.7162 71.8758 26.9114C72.1656 27.4487 72.603 27.8919 73.1362 28.1875C73.6944 28.4932 74.3221 28.6489 74.9579 28.6389C75.4917 28.6439 76.0199 28.529 76.5036 28.3018C76.9811 28.0739 77.3873 27.7186 77.6758 27.2742L78.6176 27.9113C78.2584 28.5071 77.7334 28.9848 77.1069 29.2854C76.4361 29.6056 75.7001 29.7669 74.9573 29.7556C74.0924 29.7707 73.2376 29.5629 72.4753 29.1524" fill="#410099"/>
<path d="M82.4638 21.8067C81.9507 22.1042 81.5308 22.5399 81.2516 23.0647C80.9525 23.6353 80.8017 24.2724 80.8142 24.9171C80.8117 25.047 80.8173 25.1776 80.8324 25.3069L87.4478 24.0314C87.322 23.2831 86.9371 22.6033 86.3601 22.1118C85.7656 21.6014 85.0027 21.3309 84.2205 21.3528C83.6047 21.3441 82.9983 21.5016 82.4638 21.8079M86.1567 28.3269C86.6417 28.1267 87.0723 27.8147 87.414 27.4155L88.1268 28.2309C87.7087 28.7299 87.1762 29.1204 86.5754 29.3689C85.0747 29.9571 83.395 29.8768 81.9569 29.148C81.2279 28.7594 80.6221 28.1731 80.209 27.4563C79.7866 26.7118 79.5714 25.8675 79.5845 25.0113C79.5707 24.1582 79.7766 23.3158 80.1821 22.5662C80.5639 21.8607 81.1359 21.2763 81.8318 20.8789C82.5596 20.4703 83.3825 20.2619 84.2161 20.275C85.0046 20.2644 85.7825 20.4608 86.4728 20.8438C87.1386 21.2166 87.6925 21.7609 88.0773 22.4206C88.4828 23.1205 88.7013 23.914 88.71 24.7237L81.0063 26.214C81.2222 26.9384 81.6791 27.5661 82.3018 27.9923C82.9632 28.4349 83.7449 28.6609 84.5396 28.6389C85.0929 28.6439 85.6417 28.5385 86.1542 28.3275" fill="#410099"/>
<path d="M91.4999 29.0513C91.0211 28.5121 90.7764 27.804 90.8196 27.0827V16.5143H92.0737V26.9766C92.0412 27.433 92.1801 27.885 92.4624 28.244C92.769 28.5529 93.1952 28.7117 93.6289 28.679C93.9205 28.6872 94.2102 28.6326 94.4787 28.519L94.5663 29.5629C94.2021 29.6922 93.8178 29.7581 93.4317 29.7575C92.7164 29.8052 92.0149 29.5491 91.4974 29.0519" fill="#410099"/>
<path d="M101.218 28.1882C101.745 27.8862 102.175 27.4412 102.46 26.9039C103.064 25.7118 103.064 24.3013 102.46 23.1092C102.175 22.5725 101.744 22.1281 101.218 21.8274C100.112 21.2248 98.7761 21.2248 97.6697 21.8274C97.1427 22.1293 96.7122 22.575 96.4274 23.1124C95.8242 24.3051 95.8242 25.7149 96.4274 26.9076C96.7128 27.445 97.1434 27.89 97.6697 28.192C98.7761 28.7946 100.112 28.7946 101.218 28.192V28.1888V28.1882ZM104.154 20.3453V29.6677H102.947V27.8241C102.588 28.4311 102.07 28.9277 101.448 29.2597C100.799 29.5974 100.077 29.7676 99.3456 29.7556C98.5151 29.7663 97.6966 29.5585 96.9713 29.153C96.2691 28.7594 95.6915 28.1756 95.3035 27.4688C94.4993 25.9252 94.4993 24.0854 95.3035 22.5418C95.6902 21.8362 96.2685 21.2549 96.9713 20.8657C97.6985 20.4659 98.5164 20.2612 99.3456 20.2719C100.057 20.2619 100.759 20.4232 101.395 20.7421C102.007 21.0584 102.525 21.5324 102.894 22.1162V20.3441H104.154V20.3453Z" fill="#410099"/>
<path d="M108.815 20.7584C109.491 20.415 110.243 20.2487 111 20.275V21.5098L110.696 21.4922C109.828 21.4445 108.982 21.7772 108.377 22.4036C107.818 23.0113 107.538 23.8637 107.539 24.9616V29.7575H106.273V20.3472H107.485V22.1902C107.761 21.5807 108.228 21.0785 108.815 20.7596" fill="#410099"/>
<path d="M9.94282 3.7035V27.7028L9.74068 27.8347C6.93519 29.6733 5.79059 30.4197 5.32624 30.7272L5.00583 30.9407L4.99331 30.9495L4.98393 30.9564L4.96202 30.9689C3.92694 31.5502 2.66093 31.532 1.64274 30.9212C1.14022 30.6193 0.72531 30.1912 0.438065 29.6796C0.149568 29.1654 -0.00125152 28.5848 9.76197e-08 27.9947V3.33503C0.0143937 2.44742 0.372981 1.60061 1.00004 0.974138C1.62272 0.351431 2.46568 0.00178596 3.34494 0.000530497C3.81367 -0.000724961 4.27739 0.099084 4.70419 0.294308C4.90633 0.384701 5.09782 0.497064 5.27618 0.62826L5.28869 0.634537C5.33375 0.667807 5.38257 0.704843 5.42762 0.741251H5.43326L9.94345 3.70225V3.7035H9.94282Z" fill="#10CFC9"/>
<path d="M35.8281 15.7083C35.8281 16.8106 35.2924 17.8438 34.3918 18.4759L34.1484 18.6285C19.9294 27.767 16.2716 30.1184 15.3341 30.7229L15.0075 30.9395L14.995 30.9483L14.9856 30.9552L14.9643 30.9678C13.3359 31.8679 11.2896 31.2954 10.3602 29.6809C10.0667 29.1693 9.91216 28.5887 9.91153 27.9986V27.7073C11.3259 26.8015 13.1307 25.6371 15.4474 24.15C17.7642 22.6629 20.5853 20.8494 24.026 18.6354L24.2663 18.4816C25.792 17.4082 26.1612 15.2971 25.0905 13.7667C24.8151 13.3731 24.4597 13.043 24.0479 12.7981L9.9109 3.70485V3.33638C9.92717 2.44563 10.2926 1.59694 10.9285 0.974859C11.5662 0.350268 12.4229 -4.51679e-06 13.3147 -4.51679e-06C13.7915 -0.0018877 14.2628 0.098549 14.6983 0.293773C14.9036 0.384166 15.0988 0.496529 15.2803 0.628352L15.2928 0.63463C15.3392 0.667899 15.3886 0.704935 15.4349 0.741344H15.4418L34.1703 12.7925C35.1966 13.4026 35.8268 14.51 35.8274 15.7064" fill="#10CFC9"/>
<path d="M25.7526 15.7472C25.7526 16.8508 25.2163 17.8853 24.3145 18.5187L24.0717 18.6718C20.6272 20.889 17.7992 22.7031 15.4843 24.194C13.1689 25.6848 11.3628 26.848 9.94219 27.7551V3.72119L24.0942 12.8295C25.1218 13.4403 25.752 14.5495 25.752 15.7472" fill="#410099"/>
</g>
<defs>
<clipPath id="clip0_9_42">
<rect width="111" height="33.1912" fill="white"/>
</clipPath>
</defs>
</svg>
