<svg width="314" height="26" viewBox="0 0 314 26" fill="none" xmlns="http://www.w3.org/2000/svg">
<path d="M40.394 2.52344L37.0502 10.7219H34.679L31.3512 2.52344H33.7224L35.9172 8.10064L38.1832 2.52344H40.394V2.52344Z" fill="#410099"/>
<path d="M46.4218 8.27741C47.2021 7.321 47.2021 5.92391 46.4218 4.9675C46.2323 4.76508 46.0038 4.60576 45.7509 4.49971C44.9651 4.18784 44.0755 4.36944 43.4642 4.9675C42.6826 5.92343 42.6826 7.32148 43.4642 8.27741C44.0755 8.87547 44.9651 9.05755 45.7509 8.7452C46.0038 8.63915 46.2323 8.47983 46.4218 8.27741ZM49.3016 2.51957V10.7258H47.0641V9.78006C46.4838 10.4924 45.6444 10.8479 44.5452 10.8474C43.825 10.858 43.1142 10.6798 42.4799 10.3287C41.8695 9.98878 41.367 9.47546 41.0311 8.84932C40.3278 7.45368 40.3264 5.79219 41.0283 4.39559C41.3642 3.76944 41.8667 3.25613 42.4766 2.91618C43.1123 2.56509 43.8241 2.3864 44.5452 2.39706C45.5759 2.39706 46.3815 2.72732 46.9623 3.38833V2.51861H49.3016V2.51957Z" fill="#410099"/>
<path d="M63.4245 3.30162C64.0166 3.90645 64.3126 4.81347 64.3126 6.02315V10.718H61.9837V6.39167C61.9837 5.74131 61.8518 5.25608 61.5882 4.9355C61.3038 4.60572 60.8891 4.42848 60.4622 4.4556C59.9733 4.43091 59.499 4.62897 59.164 4.997C58.8454 5.35826 58.6864 5.89385 58.6864 6.60474V10.7209H56.3598V6.39215C56.3598 5.1016 55.8526 4.45609 54.8378 4.4556C54.3536 4.43284 53.8844 4.6309 53.5546 4.997C53.2365 5.35826 53.0775 5.89385 53.077 6.60474V10.7209H50.7494V2.51954H52.9733V3.46529C53.275 3.11711 53.6503 2.84544 54.0702 2.67159C54.523 2.48516 55.0071 2.39218 55.4946 2.39799C56.0262 2.38976 56.5521 2.50695 57.0325 2.74084C57.4825 2.96312 57.8648 3.30985 58.136 3.74181C58.4677 3.31275 58.8951 2.9728 59.3817 2.75101C59.901 2.51373 60.4636 2.39411 61.0313 2.40089C62.0362 2.39896 62.8343 2.69968 63.4264 3.30258" fill="#410099"/>
<path d="M71.6589 8.27744C72.4114 7.31086 72.4114 5.93412 71.6589 4.96754C70.8585 4.14333 69.5626 4.14333 68.7617 4.96754C67.9979 5.93024 67.9979 7.31522 68.7617 8.27744C69.1385 8.68761 69.6668 8.91279 70.2143 8.89584C70.7595 8.91376 71.2859 8.68858 71.6584 8.27744M67.974 10.3065C67.3312 9.9646 66.7936 9.44402 66.422 8.80383C65.6779 7.45082 65.6779 5.79368 66.422 4.44066C66.794 3.80047 67.3317 3.28038 67.974 2.93801C69.3815 2.21646 71.0353 2.21646 72.4428 2.93801C73.08 3.28329 73.612 3.8029 73.9808 4.44066C74.7249 5.79368 74.7249 7.45082 73.9808 8.80383C73.6115 9.44209 73.0781 9.96218 72.44 10.3065C71.033 11.028 69.3801 11.028 67.9735 10.3065" fill="#410099"/>
<path d="M76.9065 10.5947C76.3735 10.4692 75.8631 10.2557 75.3962 9.96223L76.1666 8.25425C76.5668 8.508 77.0008 8.70073 77.455 8.82616C77.9363 8.96998 78.4346 9.04359 78.9356 9.04601C79.9134 9.04601 80.4018 8.79662 80.4018 8.29734C80.3957 8.05473 80.231 7.84747 80.0016 7.79468C79.6019 7.66394 79.1899 7.57677 78.7724 7.53512C78.2272 7.45716 77.6881 7.33997 77.1584 7.18452C76.7376 7.05474 76.3571 6.81261 76.055 6.48283C75.7233 6.0867 75.5558 5.57145 75.5886 5.04894C75.5811 4.55161 75.734 4.06589 76.0235 3.6688C76.3534 3.23733 76.7953 2.91239 77.2978 2.73079C77.9312 2.49351 78.6016 2.38019 79.2753 2.39569C79.8407 2.39569 80.4041 2.46009 80.9559 2.586C81.441 2.68527 81.9083 2.86251 82.3404 3.11142L81.57 4.80439C80.8696 4.39761 80.0785 4.18696 79.2749 4.19374C78.893 4.17001 78.5115 4.24362 78.1639 4.40778C77.9485 4.50221 77.8045 4.71577 77.7937 4.95693C77.7918 5.20874 77.957 5.42908 78.1934 5.49058C78.6086 5.62811 79.0351 5.72593 79.4677 5.78356C80.0072 5.86976 80.5416 5.98937 81.0671 6.14191C81.4809 6.26879 81.8543 6.50849 82.1476 6.83537C82.4718 7.22326 82.6364 7.72689 82.6064 8.23827C82.612 8.7293 82.4553 9.20824 82.1621 9.59516C81.8229 10.0228 81.3734 10.3429 80.8658 10.5182C80.2165 10.7511 79.5315 10.862 78.8442 10.846C78.1906 10.846 77.5394 10.7613 76.9065 10.5932" fill="#410099"/>
<path d="M36.7922 21.7844C37.1956 21.5524 37.5264 21.2062 37.746 20.7863C37.9806 20.3335 38.0993 19.8265 38.0904 19.3132C38.0997 18.8023 37.981 18.2972 37.746 17.8473C37.5241 17.4304 37.1938 17.0851 36.7922 16.8512C35.9477 16.3737 34.9253 16.3737 34.0808 16.8512C33.682 17.0871 33.3541 17.4323 33.1336 17.8493C32.8985 18.2992 32.7798 18.8042 32.7888 19.3151C32.7798 19.8284 32.8985 20.3355 33.1336 20.7882C33.3513 21.2066 33.6797 21.5529 34.0808 21.7863C34.9277 22.2536 35.9448 22.2536 36.7922 21.7863V21.7849V21.7844ZM37.3176 16.1016C37.852 16.4023 38.2926 16.8532 38.5881 17.4018C39.2023 18.6038 39.2023 20.041 38.5881 21.243C38.2935 21.7902 37.8553 22.241 37.3242 22.5427C36.7664 22.856 36.1396 23.0149 35.5048 23.0037C34.9633 23.012 34.428 22.887 33.9429 22.6391C33.477 22.3945 33.0829 22.027 32.8005 21.5732V25.6047H31.8396V15.6958H32.7592V17.1268C33.0369 16.6599 33.4315 16.2798 33.9016 16.0256C34.3971 15.7636 34.9474 15.6309 35.5038 15.6401C36.1363 15.6314 36.7607 15.7902 37.3167 16.1011" fill="#410099"/>
<path d="M44.7821 21.7456C45.1767 21.5127 45.4994 21.1694 45.712 20.7548C46.1652 19.8352 46.1652 18.7471 45.712 17.8275C45.499 17.4135 45.1762 17.0706 44.7821 16.8386C43.9535 16.3747 42.9537 16.3747 42.1257 16.8386C41.7306 17.0716 41.4078 17.4154 41.1948 17.8299C40.7426 18.75 40.7426 19.8377 41.1948 20.7577C41.4088 21.1713 41.7316 21.5142 42.1257 21.7466C42.9547 22.2115 43.9554 22.2115 44.7844 21.7466H44.7821V21.7456V21.7456ZM46.982 15.6958V22.8875H46.0784V21.4653C45.8091 21.9335 45.4206 22.3166 44.9552 22.5727C44.4687 22.8333 43.9273 22.9645 43.3797 22.9553C42.7572 22.9635 42.1435 22.8033 41.5997 22.4904C41.0719 22.1873 40.6375 21.7369 40.3456 21.1912C39.7432 20.0004 39.7432 18.581 40.3456 17.3902C40.6351 16.8459 41.0686 16.3975 41.595 16.0972C42.1402 15.7888 42.7534 15.6309 43.3751 15.6391C43.9076 15.6314 44.4344 15.7558 44.9106 16.0018C45.3718 16.2449 45.7612 16.611 46.0395 17.0619V15.6948H46.982V15.6958V15.6958Z" fill="#410099"/>
<path d="M50.345 16.014C50.8517 15.7491 51.4152 15.6208 51.9829 15.6411V16.5937L51.7549 16.5801C51.1041 16.5433 50.4698 16.8 50.0166 17.2832C49.5976 17.752 49.3879 18.4096 49.3879 19.2566V22.9563H48.4388V15.6968H49.348V17.1186C49.5549 16.6484 49.9049 16.261 50.3446 16.015" fill="#410099"/>
<path d="M54.3353 22.4899C53.7976 22.1872 53.3529 21.735 53.0517 21.1843C52.4309 20.0057 52.4309 18.5829 53.0517 17.4042C53.3543 16.857 53.799 16.4071 54.3353 16.1059C54.9063 15.7897 55.5462 15.6294 56.1937 15.6406C56.7529 15.6309 57.307 15.7553 57.8118 16.0033C58.2787 16.2367 58.6699 16.6047 58.9378 17.0628L58.2317 17.5553C58.014 17.212 57.7105 16.9355 57.353 16.7553C56.9917 16.5761 56.5953 16.4846 56.1941 16.488C55.7179 16.4807 55.2483 16.6008 54.8303 16.8372C54.4291 17.0662 54.1012 17.4105 53.8854 17.828C53.4326 18.7495 53.4326 19.8386 53.8854 20.7606C54.1026 21.1751 54.4305 21.517 54.8303 21.7451C55.2488 21.981 55.7193 22.1011 56.196 22.0933C56.5962 22.0972 56.9922 22.0086 57.3549 21.8333C57.7128 21.6575 58.0173 21.3834 58.2336 21.0405L58.9397 21.532C58.6704 21.9916 58.2768 22.3601 57.8071 22.5921C57.3042 22.8391 56.7525 22.9635 56.1955 22.9548C55.5472 22.9664 54.9063 22.8061 54.3348 22.4894" fill="#410099"/>
<path d="M61.8232 16.8227C61.4385 17.0522 61.1237 17.3883 60.9144 17.7931C60.6902 18.2333 60.5771 18.7248 60.5865 19.2222C60.5846 19.3224 60.5888 19.4231 60.6001 19.5229L65.5597 18.5389C65.4654 17.9616 65.1768 17.4372 64.7443 17.058C64.2986 16.6643 63.7266 16.4556 63.1402 16.4726C62.6785 16.4658 62.2239 16.5873 61.8232 16.8236M64.5918 21.8527C64.9554 21.6982 65.2782 21.4575 65.5343 21.1495L66.0687 21.7786C65.7553 22.1636 65.3561 22.4648 64.9057 22.6565C63.7806 23.1103 62.5213 23.0483 61.4432 22.4861C60.8966 22.1863 60.4425 21.734 60.1328 21.181C59.8161 20.6067 59.6547 19.9553 59.6646 19.2948C59.6543 18.6367 59.8086 17.9868 60.1126 17.4086C60.3988 16.8643 60.8276 16.4135 61.3494 16.1069C61.895 15.7917 62.512 15.6309 63.1369 15.6411C63.728 15.6328 64.3112 15.7844 64.8287 16.0798C65.3279 16.3675 65.7431 16.7873 66.0317 17.2963C66.3357 17.8362 66.4994 18.4483 66.506 19.073L60.7305 20.2227C60.8924 20.7815 61.2349 21.2657 61.7017 21.5946C62.1976 21.936 62.7836 22.1103 63.3795 22.0933C63.7942 22.0972 64.2057 22.0159 64.5899 21.8531" fill="#410099"/>
<path d="M68.5975 22.4115C68.2386 21.9955 68.0552 21.4493 68.0875 20.8928V12.7399H69.0278V20.811C69.0034 21.1631 69.1075 21.5117 69.3191 21.7887C69.549 22.027 69.8685 22.1495 70.1936 22.1243C70.4123 22.1306 70.6295 22.0885 70.8308 22.0008L70.8965 22.8062C70.6234 22.9059 70.3353 22.9568 70.0459 22.9563C69.5096 22.9931 68.9837 22.7955 68.5957 22.412" fill="#410099"/>
<path d="M75.8832 21.7456C76.2783 21.5127 76.6006 21.1694 76.8141 20.7548C77.2673 19.8352 77.2673 18.7471 76.8141 17.8275C76.6006 17.4135 76.2778 17.0706 75.8832 16.8386C75.0538 16.3738 74.0526 16.3738 73.2231 16.8386C72.828 17.0716 72.5052 17.4154 72.2918 17.8299C71.8395 18.75 71.8395 19.8377 72.2918 20.7577C72.5057 21.1723 72.8285 21.5156 73.2231 21.7485C74.0526 22.2134 75.0538 22.2134 75.8832 21.7485V21.7461V21.7456ZM78.0841 15.6953V22.887H77.1796V21.4648C76.9103 21.933 76.5218 22.3161 76.0559 22.5723C75.5694 22.8328 75.0275 22.964 74.4795 22.9548C73.8569 22.9631 73.2432 22.8028 72.6995 22.4899C72.1731 22.1863 71.74 21.7359 71.4491 21.1907C70.8463 19.9999 70.8463 18.5805 71.4491 17.3897C71.7391 16.8454 72.1726 16.397 72.6995 16.0968C73.2446 15.7883 73.8578 15.6304 74.4795 15.6386C75.0125 15.6309 75.5393 15.7554 76.016 16.0014C76.4749 16.2454 76.8629 16.611 77.1397 17.0614V15.6943H78.0841V15.6953V15.6953Z" fill="#410099"/>
<path d="M81.579 16.014C82.0857 15.7491 82.6491 15.6208 83.2168 15.6411V16.5937L82.9888 16.5801C82.3381 16.5433 81.7042 16.8 81.2505 17.2832C80.8311 17.752 80.6214 18.4096 80.6219 19.2566V22.9563H79.6727V15.6968H80.582V17.1186C80.7889 16.6484 81.1389 16.261 81.5785 16.015" fill="#410099"/>
<path d="M7.45414 2.85714V21.3713L7.3026 21.473C5.19932 22.8914 4.34121 23.4672 3.99309 23.7045L3.75287 23.8691L3.74349 23.8759L3.73645 23.8812L3.72003 23.8909C2.94403 24.3393 1.9949 24.3253 1.23156 23.8541C0.854823 23.6212 0.543764 23.2909 0.328416 22.8962C0.112129 22.4996 -0.000940173 22.0517 -1.83644e-06 21.5965V2.57288C0.010789 1.88814 0.279622 1.23487 0.749729 0.751582C1.21655 0.271198 1.84852 0.00146582 2.5077 0.000497306C2.85911 -0.000471211 3.20676 0.0765259 3.52673 0.22713C3.67828 0.296864 3.82184 0.383546 3.95555 0.484756L3.96494 0.489598C3.99872 0.515264 4.03531 0.543835 4.06909 0.571922H4.07332L7.45461 2.85617V2.85714H7.45414Z" fill="#10CFC9"/>
<path d="M26.8603 12.1181C26.8603 12.9685 26.4587 13.7656 25.7836 14.2532L25.6011 14.3709C14.9411 21.4207 12.1988 23.2347 11.496 23.7011L11.2511 23.8682L11.2417 23.8749L11.2347 23.8803L11.2187 23.8899C9.99797 24.5844 8.46379 24.1427 7.76708 22.8972C7.54704 22.5025 7.43115 22.0546 7.43068 21.5994V21.3747C8.491 20.6759 9.84408 19.7776 11.5809 18.6304C13.3178 17.4832 15.4328 16.0842 18.0123 14.3762L18.1925 14.2576C19.3363 13.4295 19.6131 11.8009 18.8104 10.6203C18.6039 10.3167 18.3374 10.0619 18.0287 9.87308L7.43021 2.85811V2.57385C7.44241 1.88669 7.71641 1.23197 8.19308 0.752074C8.67116 0.270236 9.31345 2.00582e-05 9.98202 2.00582e-05C10.3395 -0.00143272 10.6928 0.0760487 11.0193 0.226653C11.1732 0.296386 11.3196 0.383069 11.4557 0.484763L11.4651 0.489605C11.4998 0.515271 11.5368 0.543842 11.5716 0.571929H11.5767L25.6175 9.86873C26.387 10.3394 26.8594 11.1937 26.8599 12.1167" fill="#10CFC9"/>
<path d="M19.3067 12.1482C19.3067 12.9995 18.9047 13.7975 18.2286 14.2862L18.0465 14.4043C15.4642 16.1147 13.3441 17.5142 11.6086 18.6643C9.8727 19.8145 8.51869 20.7118 7.45367 21.4115V2.87073L18.0634 9.89732C18.8338 10.3685 19.3063 11.2242 19.3063 12.1482" fill="#410099"/>
<g clip-path="url(#clip0_33_4)">
<path d="M163.153 5.07716C166.634 4.96562 170.909 8.91404 175.615 9.60557C175.941 9.65018 177.515 9.31557 177.515 9.31557L178.495 9.09993C173.403 9.24121 168.267 3.68666 162.812 3.6123L163.153 5.07716V5.07716Z" fill="#00AAB5"/>
<path d="M175.392 6.36363C170.798 6.65363 166.189 2.45239 161.587 3.30008C159.747 3.63469 162.582 4.01391 162.582 4.01391C165.41 4.85416 168.571 6.14056 171.288 6.71311C171.614 6.78004 171.971 6.79491 172.282 6.84696C172.609 6.8767 174.182 6.83209 174.182 6.83209L175.392 6.36363V6.36363Z" fill="#00AAB5"/>
<path d="M180.484 4.19232C177.945 5.06975 176.261 7.73177 171.325 6.7205C175.86 6.57922 178.554 3.83541 181.508 3.04721C182.517 2.78696 181.924 3.69412 180.484 4.19232V4.19232Z" fill="#C5D335"/>
<path d="M186.087 4.1626C185.108 3.72389 186.214 4.48234 185.464 3.99158C181.226 4.62362 180.432 9.50151 175.392 9.56844C180.684 10.9218 183.727 3.4562 188.24 4.61619C187.869 4.92849 186.125 4.63106 186.087 4.1626V4.1626Z" fill="#C5D335"/>
<path d="M169.625 10.4533C174.806 10.5127 178.042 2.42258 183.089 2.92821C187.023 3.32231 187.728 5.12921 191.253 2.6977C191.283 2.67539 191.379 2.62334 191.409 2.74232C191.424 2.82411 191.424 2.9059 191.379 2.97283C188.01 6.40817 185.464 4.04358 182.896 4.05845C179.46 4.07333 178.576 7.87303 173.455 10.8697C173.321 10.9143 173.158 11.0035 172.936 11.0853C172.624 11.1968 172.275 11.2861 172.275 11.2861L169.625 10.4533V10.4533Z" fill="#00AAB5"/>
<path d="M155.219 9.51637C159.702 3.38183 162.626 4.83925 164.786 6.74282C167.985 9.56099 169.306 12.7956 173.463 10.8697C171.139 11.814 169.759 9.33792 165.825 5.39693C163.814 3.38927 160.296 0.563657 155.004 9.27099C154.885 9.45689 155.115 9.67253 155.219 9.51637V9.51637Z" fill="#C5D335"/>
<path d="M143.314 16.9596C143.158 16.6101 142.676 16.5432 141.859 16.5432H140.932C139.655 16.5432 139.492 16.9596 139.492 17.889V20.1495C139.492 21.1905 139.588 21.659 140.947 21.659C141.459 21.659 143.329 21.4359 144.309 21.3095L144.376 22.4323C143.381 22.6554 141.273 22.9305 140.531 22.9305C138.661 22.9305 138 22.068 138 20.2239V17.9485C138 16.1565 138.675 15.2865 140.516 15.2865H142.29C143.537 15.2865 144.242 15.688 144.576 16.506L143.314 16.9596V16.9596Z" fill="#A7A9AC"/>
<path d="M150.87 19.3837L148.487 19.7184C147.396 19.8819 147.114 20.0232 147.047 20.6999C147.114 21.3542 147.381 21.6591 148.487 21.6591H148.918C150.261 21.6591 150.87 20.9527 150.87 19.9266V19.3837V19.3837ZM151.345 22.7968L151.026 22.1573C150.514 22.6704 149.534 22.9306 149.007 22.9306H148.064C145.697 22.9306 145.57 21.1312 145.57 20.7519C145.57 20.3727 145.667 18.6848 148.064 18.4617L150.87 18.2014V17.6215C150.87 17.0935 150.773 16.5507 149.4 16.5507C148.903 16.5507 147.018 16.7738 146.053 16.9002L145.986 15.7774C146.966 15.5692 149.074 15.2792 149.831 15.2792C151.686 15.2792 152.347 16.164 152.347 18.0081V22.7968H151.345V22.7968Z" fill="#A7A9AC"/>
<path d="M157.461 22.9231C155.59 22.9231 154.945 22.0606 154.945 20.2165V16.5283H153.237V15.3758H154.945V12.9814H156.414V15.3683H158.351V16.5209H156.414V20.1421C156.414 21.1831 156.511 21.6516 157.869 21.6516C158.218 21.6516 158.507 21.5401 158.99 21.4434V22.6331C158.433 22.7967 157.973 22.9231 157.461 22.9231Z" fill="#A7A9AC"/>
<path d="M163.999 16.5432H163.072C161.713 16.5432 161.632 17.0265 161.632 18.0675V18.759L163.999 18.4988C165.105 18.3872 165.439 18.1939 165.439 17.5247C165.439 16.8555 165.105 16.5432 163.999 16.5432V16.5432ZM164.43 19.7703C162.619 19.8818 161.624 19.9339 161.624 19.9339V20.157C161.624 21.198 161.721 21.6664 163.079 21.6664C163.591 21.6664 165.462 21.4434 166.441 21.3169L166.508 22.4397C165.514 22.6628 163.406 22.9379 162.663 22.9379C160.793 22.9379 160.133 22.0754 160.133 20.2313V18.0154C160.133 16.1714 160.786 15.2865 162.649 15.2865H164.422C165.914 15.2865 166.916 16.0524 166.916 17.5321C166.931 18.9003 165.922 19.6736 164.43 19.7703V19.7703Z" fill="#A7A9AC"/>
<path d="M173.856 22.8117V18.0527C173.856 17.0117 173.759 16.5433 172.379 16.5433C171.919 16.5433 170.939 16.7366 170.011 16.863V22.8117H168.519V15.3907H169.685L170.004 15.7625C170.961 15.5543 172.097 15.2792 172.802 15.2792C174.657 15.2792 175.318 16.164 175.318 17.9858V22.8117H173.856Z" fill="#A7A9AC"/>
<path d="M182.339 18.0676C182.339 17.0266 182.243 16.5433 180.87 16.5433H179.942C178.584 16.5433 178.487 17.0266 178.487 18.0676V20.1496C178.487 21.1906 178.584 21.6591 179.942 21.6591H180.87C182.25 21.6591 182.339 21.1981 182.339 20.1496V18.0676ZM181.3 22.9306H179.526C177.671 22.9306 177.01 22.0681 177.01 20.224V18.0081C177.01 16.164 177.671 15.2792 179.526 15.2792H181.3C183.156 15.2792 183.816 16.164 183.816 18.0081V20.224C183.816 22.0606 183.156 22.9306 181.3 22.9306V22.9306Z" fill="#A7A9AC"/>
</g>
<g clip-path="url(#clip1_33_4)">
<path d="M313.958 4.27734H214.418V21.3279H313.958V4.27734Z" fill="#FCFC30"/>
<path fill-rule="evenodd" clip-rule="evenodd" d="M236.253 12.0743V9.90897H237.019C237.714 9.90897 238.204 10.3657 238.204 10.9881C238.204 11.809 237.577 12.0672 237.128 12.0672H236.41L236.252 12.0735L236.253 12.0743ZM236.679 13.3689H236.951C237.987 13.3689 238.315 13.8266 238.315 14.5781C238.315 15.7622 237.333 15.7747 236.897 15.7747H236.254V13.3823L236.68 13.3689H236.679ZM248.753 17.0755V12.451L250.684 17.0755H252.763V10.144H251.265V14.6261L249.388 10.144H247.257V17.0764H248.753V17.0755ZM256.109 17.2794C257.641 17.2794 258.536 16.6722 258.536 14.7811H256.793C256.772 15.3393 256.763 16.2208 256.109 16.2208C255.369 16.2208 255.261 15.7738 255.261 13.6263C255.261 11.4787 255.431 11.0308 256.076 11.0308C256.54 11.0308 256.75 11.3825 256.75 12.3228H258.481C258.546 10.8047 257.702 9.97218 256.034 9.97218C253.547 9.97218 253.475 11.5517 253.475 13.6254C253.475 15.699 253.411 17.2785 256.109 17.2785V17.2794ZM242.27 17.0755L242.705 15.5397H244.575L244.999 17.0755H246.848L244.765 10.1431H242.651L240.526 17.0755H242.269H242.27ZM244.298 14.473H242.959L243.596 11.6363L244.297 14.473H244.298ZM261.751 16.2208C260.961 16.2208 260.859 15.4373 260.859 13.6263C260.859 11.8152 260.961 11.0308 261.751 11.0308C262.541 11.0308 262.643 11.8144 262.643 13.6263C262.643 15.4382 262.541 16.2208 261.751 16.2208ZM261.751 17.2794C264.449 17.2794 264.449 15.4773 264.449 13.6263C264.449 11.7752 264.449 9.97307 261.751 9.97307C259.053 9.97307 259.052 11.7556 259.052 13.6263C259.052 15.4969 259.052 17.2794 261.751 17.2794ZM304.729 17.0755V10.144H302.965V17.0764H304.729V17.0755ZM309.586 17.0755V16.0267H307.527V10.144H305.763V17.0764H309.586V17.0755ZM282.926 17.0773C283.757 17.0773 285.821 16.9829 285.821 14.8363C285.821 13.6752 285.458 12.8659 284.069 12.6896C285.133 12.4786 285.665 11.7743 285.665 10.8011C285.665 8.99456 284.432 8.60725 282.94 8.60725H279.461V17.0773H282.926V17.0773ZM281.598 12.0859V9.92054H282.63C283.195 9.92054 283.596 10.3782 283.596 10.9997C283.596 11.8215 283.086 12.0788 282.719 12.0788H282.134L281.598 12.0859ZM282.135 13.3814H282.575C283.418 13.3814 283.684 13.8391 283.684 14.5896C283.684 15.7747 282.885 15.7863 282.53 15.7863H281.598V13.3948L282.135 13.3814ZM268.123 11.2009H268.839C269.803 11.2009 269.803 12.3281 269.803 13.6093C269.803 15.3527 269.638 16.0169 268.794 16.0169H268.123V11.2009ZM266.366 17.0747H269.001C271.764 17.0747 271.582 14.6279 271.582 13.5586C271.582 11.3923 271.186 10.12 269.066 10.12H266.367V17.0747H266.366ZM274.937 16.2252C274.147 16.2252 274.045 15.4453 274.045 13.6405C274.045 11.8357 274.147 11.0567 274.937 11.0567C275.728 11.0567 275.83 11.8366 275.83 13.6405C275.83 15.4444 275.728 16.2252 274.937 16.2252ZM274.937 17.2785C277.638 17.2785 277.638 15.4836 277.638 13.6405C277.638 11.7974 277.638 10.0042 274.937 10.0042C272.237 10.0042 272.238 11.7779 272.238 13.6405C272.238 15.5032 272.238 17.2785 274.937 17.2785ZM295.074 14.4757H293.735L294.373 11.6398L295.075 14.4757H295.074ZM299.975 17.0747C301.136 17.0747 302.312 16.9197 302.312 15.1239C302.312 13.0511 299.307 13.2576 299.307 11.9426C299.307 11.4627 299.6 11.2027 300.094 11.2027H301.702V10.136H299.443C297.586 10.136 297.126 10.9738 297.126 12.0592C297.126 14.1231 300.456 14.0759 300.456 15.236C300.456 15.707 300.203 16.0231 299.688 16.0231H297.307L295.542 10.1414H293.427L291.474 16.4505L290.248 13.7384C291.146 13.5711 291.505 13.0012 291.508 11.9559C291.511 10.7753 290.806 10.1414 289.712 10.1414H286.406V17.0738H288.214V11.2089H288.814C289.324 11.2089 289.766 11.5811 289.766 12.2622C289.766 12.841 289.477 13.3146 289.012 13.2844L288.509 13.2915L290.154 17.0755H293.045L293.482 15.5388H295.351L295.776 17.0755H299.976L299.975 17.0747ZM237.586 17.0747C238.417 17.0747 240.481 16.9812 240.481 14.8345C240.481 13.6734 240.118 12.8632 238.729 12.6878C239.793 12.4768 240.325 11.7734 240.325 10.7993C240.325 8.99189 239.092 8.60547 237.599 8.60547H234.12V17.0747H237.585H237.586Z" fill="#465EFF"/>
<path fill-rule="evenodd" clip-rule="evenodd" d="M218.79 17.388L220.119 16.5021L221.448 17.388L218.79 19.1607V17.388V17.388ZM231.554 8.17092L230.225 9.05772L228.895 8.17092L231.555 6.39819V8.17092H231.554ZM231.554 14.9066L228.894 13.1338L225.703 15.2609L227.033 16.1468L225.304 17.299L221.582 14.8175L227.698 10.7405L226.368 9.8546L218.79 14.9066L225.171 19.1607L231.553 14.9066H231.554ZM218.79 10.6524L221.448 12.4251L224.639 10.298L223.31 9.41209L225.038 8.25995L228.761 10.7414L222.645 14.8184L223.974 15.7052L231.553 10.6533L225.172 6.39908L218.79 10.6524Z" fill="#465EFF"/>
</g>
<rect x="110" width="1" height="25" fill="#70777F"/>
<defs>
<clipPath id="clip0_33_4">
<rect width="53.4179" height="20.2708" fill="white" transform="translate(138 2.66724)"/>
</clipPath>
<clipPath id="clip1_33_4">
<rect width="99.5405" height="17.0506" fill="white" transform="translate(214.418 4.27734)"/>
</clipPath>
</defs>
</svg>
